<?xml version="1.0" encoding="UTF-8"?>
<svg version="1.1" xmlns="http://www.w3.org/2000/svg" width="512" height="512" class="icon">
<path d="M0 0 C6.03818831 3.44618552 9.78433748 8.71257957 12.5625 15 C14.34368654 22.51258515 13.47581249 29.3859653 9.875 36.1875 C5.53770489 41.46258865 2.37972397 44.63655521 -4.4375 46 C-4.4375 57.22 -4.4375 68.44 -4.4375 80 C9.4225 80 23.2825 80 37.5625 80 C37.40458098 72.2811684 37.40458098 72.2811684 37.20214844 64.56347656 C37.1921582 63.59893555 37.18216797 62.63439453 37.171875 61.640625 C37.15092773 60.65610352 37.12998047 59.67158203 37.10839844 58.65722656 C37.5625 56 37.5625 56 39.04296875 53.68554688 C42.64525712 51.27564388 46.07216444 51.39698141 50.265625 51.390625 C51.10341492 51.37408875 51.94120483 51.35755249 52.80438232 51.34051514 C55.47382937 51.29202501 58.14270674 51.27066255 60.8125 51.25 C62.62502868 51.22184107 64.4375308 51.19191375 66.25 51.16015625 C70.68745309 51.08626606 75.12458977 51.03669786 79.5625 51 C79.96646248 50.16835075 79.96646248 50.16835075 80.37858582 49.31990051 C80.73471451 48.59534164 81.0908432 47.87078278 81.45776367 47.12426758 C81.80957199 46.40483475 82.16138031 45.68540192 82.52384949 44.94416809 C85.01494601 40.28128071 89.3020117 37.74146371 93.75 35.125 C100.81432384 33.04044543 108.83055872 32.79504895 115.68359375 35.828125 C121.79063247 39.63708886 126.72386136 44.9901902 128.5625 52 C129.57321392 60.75186375 128.7549673 67.74369127 123.5625 75 C118.20229927 81.27795222 111.66428691 83.5442459 103.625 84.4375 C97.30392325 84.15937262 91.51439434 81.61243445 86.6875 77.625 C80.5625 70.05882353 80.5625 70.05882353 80.5625 66 C70.9925 66 61.4225 66 51.5625 66 C51.5625 92.07 51.5625 118.14 51.5625 145 C54.5325 145.99 54.5325 145.99 57.5625 147 C59.5390625 148.2265625 59.5390625 148.2265625 61.1875 149.625 C61.73664063 150.07101563 62.28578125 150.51703125 62.8515625 150.9765625 C64.54291195 152.97683423 65.52425515 154.7832354 66.66943359 157.12646484 C67.02524506 157.85070648 67.38105652 158.57494812 67.74765015 159.32113647 C68.0165506 159.87516144 68.28545105 160.4291864 68.5625 161 C69.3070258 161.00238835 70.05155161 161.00477671 70.8186388 161.00723743 C88.92052707 161.0663301 107.02227831 161.14184318 125.12402058 161.23571491 C133.87783417 161.28071281 142.63160672 161.32011817 151.38549805 161.34643555 C159.01389473 161.36938338 166.64216195 161.40274516 174.27045602 161.44870156 C178.31095735 161.47267737 182.35133012 161.49137748 186.39190102 161.49761391 C190.19307349 161.5036452 193.99391683 161.52357339 197.79496765 161.55427551 C199.1917715 161.5630873 200.58861831 161.56677185 201.98544884 161.56500816 C203.88932879 161.5633629 205.79319489 161.58177385 207.69697571 161.60127258 C208.76349019 161.60588155 209.83000467 161.61049051 210.92883778 161.61523914 C213.5625 162 213.5625 162 215.40654755 163.39085388 C216.96972893 165.56688392 216.92451796 166.9891003 216.90307617 169.6550293 C216.90284958 170.59577805 216.90262299 171.53652679 216.90238953 172.50578308 C216.88690567 173.51836685 216.87142181 174.53095062 216.85546875 175.57421875 C216.85122391 176.61318802 216.84697906 177.65215729 216.84260559 178.72261047 C216.82579849 182.04450276 216.78814196 185.36579075 216.75 188.6875 C216.73495582 190.93814229 216.72126695 193.18879407 216.70898438 195.43945312 C216.67588836 200.95984197 216.62566869 206.47987782 216.5625 212 C217.74690674 211.97905273 218.93131348 211.95810547 220.15161133 211.93652344 C224.59272931 211.8635133 229.03379549 211.81798077 233.4753418 211.78027344 C235.38884434 211.76029581 237.30228692 211.73310401 239.21557617 211.69824219 C264.58405439 211.24795335 264.58405439 211.24795335 274.90625 221.0625 C279.73492517 226.71113888 281.68220764 232.9146563 281.70967102 240.25379944 C281.72040398 242.21984131 281.72040398 242.21984131 281.73135376 244.2256012 C281.73419406 245.68173194 281.73690579 247.13786294 281.73950195 248.59399414 C281.74576744 250.1249914 281.75241432 251.65598713 281.75941467 253.1869812 C281.78045412 258.21969545 281.7908196 263.25240999 281.80078125 268.28515625 C281.80482939 270.01937819 281.80894633 271.75359997 281.81313133 273.48782158 C281.8321858 281.63889557 281.84641411 289.78996051 281.8547433 297.9410525 C281.86450541 307.33866312 281.89079693 316.73603756 281.93124419 326.13356501 C281.96145534 333.40336269 281.97621706 340.67309288 281.97952431 347.9429521 C281.98186987 352.28161977 281.99076501 356.62003521 282.01598549 360.95863533 C282.03935774 365.04547145 282.04346298 369.13189093 282.03322411 373.2187767 C282.03273079 374.71265872 282.03899072 376.20656187 282.05278015 377.70038033 C282.1366487 387.33073531 281.43322025 395.51302611 275.73828125 403.5859375 C274.81595703 404.47152344 274.81595703 404.47152344 273.875 405.375 C273.27300781 405.98085938 272.67101562 406.58671875 272.05078125 407.2109375 C265.19408542 412.14086951 258.75765282 413.59409103 250.42797852 413.53344727 C249.45761658 413.54206284 248.48725464 413.55067841 247.48748779 413.55955505 C244.30518307 413.5821102 241.12376649 413.57549513 237.94140625 413.56640625 C235.71377809 413.57164649 233.48615214 413.57792444 231.25852966 413.58518982 C226.59924853 413.59557483 221.94027318 413.59105974 217.28100586 413.57641602 C211.32824564 413.55923266 205.37645109 413.58272889 199.42379856 413.61790562 C194.8262042 413.63993018 190.2288391 413.6384258 185.63120842 413.6301403 C183.43729531 413.62932354 181.24336491 413.636134 179.04950142 413.65091133 C175.97454646 413.66845019 172.90130405 413.65373641 169.82641602 413.63110352 C168.93208359 413.64279572 168.03775116 413.65448792 167.11631775 413.66653442 C158.78188741 413.54254276 151.86921857 410.39297459 145.6875 404.8125 C138.04721354 396.39995803 137.98044212 386.37269122 138.04492188 375.59545898 C138.0394919 374.06180154 138.03236436 372.52814932 138.02368164 370.99450684 C138.00555069 366.85606514 138.0124727 362.71802532 138.02519798 358.57957721 C138.03537719 354.23427986 138.02591888 349.88901523 138.01965332 345.54371643 C138.01239195 338.24986642 138.02192564 330.95617883 138.04101562 323.66235352 C138.06278968 315.24615199 138.05572313 306.83033805 138.03371 298.41414589 C138.01552258 291.16881935 138.01301373 283.92360906 138.02346468 276.67826706 C138.02968024 272.35933939 138.03058873 268.04059356 138.01731873 263.72167778 C138.00571169 259.66095575 138.01387369 255.60073064 138.03689575 251.54006195 C138.04215673 250.05545181 138.04071409 248.5707994 138.03184509 247.08620644 C137.97292989 236.21720468 139.22605659 227.78933843 146.71875 219.5703125 C152.31935515 214.80030557 159.42552036 211.86377475 166.78027344 211.88647461 C167.60082214 211.88655014 168.42137085 211.88662567 169.26678467 211.88670349 C170.14296448 211.89186478 171.01914429 211.89702606 171.921875 211.90234375 C173.27844208 211.90446617 173.27844208 211.90446617 174.66241455 211.90663147 C177.54581027 211.91222089 180.42912782 211.92477147 183.3125 211.9375 C185.26953013 211.94251637 187.22656147 211.94707904 189.18359375 211.95117188 C193.97661671 211.9613352 198.76947104 211.98091272 203.5625 212 C203.5625 200.12 203.5625 188.24 203.5625 176 C159.0125 176.33 114.4625 176.66 68.5625 177 C66.5825 180.96 66.5825 180.96 64.5625 185 C59.96618536 190.69227287 53.65006761 193.29691964 46.52734375 194.28125 C38.71939237 194.65379639 32.08737157 191.94304065 26.16796875 186.98828125 C23.76944989 184.01785278 22.26991548 180.41483095 20.5625 177 C-46.2625 176.505 -46.2625 176.505 -114.4375 176 C-114.4375 187.88 -114.4375 199.76 -114.4375 212 C-110.18939453 211.93039062 -110.18939453 211.93039062 -105.85546875 211.859375 C-103.07855008 211.82808051 -100.3016519 211.80384924 -97.5246582 211.78027344 C-95.61115566 211.76029581 -93.69771308 211.73310401 -91.78442383 211.69824219 C-66.41594561 211.24795335 -66.41594561 211.24795335 -56.09375 221.0625 C-51.26507483 226.71113888 -49.31779236 232.9146563 -49.29032898 240.25379944 C-49.27959602 242.21984131 -49.27959602 242.21984131 -49.26864624 244.2256012 C-49.26580594 245.68173194 -49.26309421 247.13786294 -49.26049805 248.59399414 C-49.25423256 250.1249914 -49.24758568 251.65598713 -49.24058533 253.1869812 C-49.21954588 258.21969545 -49.2091804 263.25240999 -49.19921875 268.28515625 C-49.19517061 270.01937819 -49.19105367 271.75359997 -49.18686867 273.48782158 C-49.1678142 281.63889557 -49.15358589 289.78996051 -49.1452567 297.9410525 C-49.13549459 307.33866312 -49.10920307 316.73603756 -49.06875581 326.13356501 C-49.03854466 333.40336269 -49.02378294 340.67309288 -49.02047569 347.9429521 C-49.01813013 352.28161977 -49.00923499 356.62003521 -48.98401451 360.95863533 C-48.96064226 365.04547145 -48.95653702 369.13189093 -48.96677589 373.2187767 C-48.96726921 374.71265872 -48.96100928 376.20656187 -48.94721985 377.70038033 C-48.8633513 387.33073531 -49.56677975 395.51302611 -55.26171875 403.5859375 C-55.87660156 404.17632812 -56.49148437 404.76671875 -57.125 405.375 C-57.72699219 405.98085938 -58.32898438 406.58671875 -58.94921875 407.2109375 C-65.80591458 412.14086951 -72.24234718 413.59409103 -80.57202148 413.53344727 C-81.54238342 413.54206284 -82.51274536 413.55067841 -83.51251221 413.55955505 C-86.69481693 413.5821102 -89.87623351 413.57549513 -93.05859375 413.56640625 C-95.28622191 413.57164649 -97.51384786 413.57792444 -99.74147034 413.58518982 C-104.40075147 413.59557483 -109.05972682 413.59105974 -113.71899414 413.57641602 C-119.67175436 413.55923266 -125.62354891 413.58272889 -131.57620144 413.61790562 C-136.1737958 413.63993018 -140.7711609 413.6384258 -145.36879158 413.6301403 C-147.56270469 413.62932354 -149.75663509 413.636134 -151.95049858 413.65091133 C-155.02545354 413.66845019 -158.09869595 413.65373641 -161.17358398 413.63110352 C-162.06791641 413.64279572 -162.96224884 413.65448792 -163.88368225 413.66653442 C-171.84245243 413.54813147 -178.12228517 410.72584331 -184.25 405.6875 C-189.87187429 398.78062588 -192.55109866 393.59384691 -192.58467102 384.61921692 C-192.59182632 383.30570251 -192.59898163 381.99218811 -192.60635376 380.63887024 C-192.60919387 379.18478417 -192.61190561 377.73069785 -192.61450195 376.27661133 C-192.62076914 374.74384406 -192.62741617 373.21107831 -192.63441467 371.67831421 C-192.65542843 366.6462306 -192.66581506 361.61414678 -192.67578125 356.58203125 C-192.67982991 354.84747489 -192.68394687 353.11291869 -192.68813133 351.37836266 C-192.7071777 343.22782809 -192.72140947 335.07730254 -192.7297433 326.92675 C-192.73951175 317.52913955 -192.76582328 308.13176489 -192.80624419 298.73423749 C-192.83643999 291.46358602 -192.85121549 284.19300201 -192.85452431 276.92228907 C-192.85687098 272.58310933 -192.8657813 268.24418164 -192.89098549 263.90506935 C-192.91433181 259.81986454 -192.9184733 255.73507657 -192.90822411 251.64982224 C-192.90773021 250.15551934 -192.9140073 248.66119546 -192.92778015 247.16695595 C-193.02171543 236.36613122 -191.77530634 227.79083349 -184.28125 219.5703125 C-178.68064485 214.80030557 -171.57447964 211.86377475 -164.21972656 211.88647461 C-163.39917786 211.88655014 -162.57862915 211.88662567 -161.73321533 211.88670349 C-160.85703552 211.89186478 -159.98085571 211.89702606 -159.078125 211.90234375 C-157.72155792 211.90446617 -157.72155792 211.90446617 -156.33758545 211.90663147 C-153.45418973 211.91222089 -150.57087218 211.92477147 -147.6875 211.9375 C-145.73046987 211.94251637 -143.77343853 211.94707904 -141.81640625 211.95117188 C-137.02340747 211.96218687 -132.23046698 211.97944426 -127.4375 212 C-127.44749275 211.12676338 -127.44749275 211.12676338 -127.45768738 210.23588562 C-127.5239769 204.18538934 -127.56927393 198.13499595 -127.60229492 192.08422852 C-127.61739602 189.82507132 -127.63787842 187.56594351 -127.66381836 185.30688477 C-127.70014308 182.06258907 -127.71721308 178.81868044 -127.73046875 175.57421875 C-127.74595261 174.56163498 -127.76143646 173.54905121 -127.77738953 172.50578308 C-127.77761612 171.56503433 -127.77784271 170.62428558 -127.77807617 169.6550293 C-127.78806892 168.41259712 -127.78806892 168.41259712 -127.79826355 167.14506531 C-127.33391846 164.38411416 -126.66433048 163.67956397 -124.4375 162 C-121.80383778 161.61523914 -121.80383778 161.61523914 -118.57197571 161.60127258 C-117.34779938 161.58873444 -116.12362305 161.57619629 -114.86235046 161.5632782 C-113.50369236 161.5644523 -112.14503448 161.56591147 -110.78637695 161.56762695 C-109.35737254 161.55861203 -107.92837588 161.54828547 -106.49938965 161.53674316 C-102.6174394 161.50911504 -98.73563563 161.49988083 -94.85359979 161.49388909 C-90.79761949 161.48452048 -86.74174927 161.45831838 -82.68583679 161.43388367 C-75.00423517 161.39017321 -67.32265485 161.36165423 -59.64096659 161.33856028 C-50.89613931 161.31153292 -42.15142251 161.26761994 -33.40667403 161.22227156 C-15.41700763 161.12936022 2.57268798 161.05770925 20.5625 161 C20.96585068 160.16896255 20.96585068 160.16896255 21.37734985 159.32113647 C21.73316132 158.59689484 22.08897278 157.8726532 22.45556641 157.12646484 C22.80696686 156.40743988 23.15836731 155.68841492 23.52041626 154.94760132 C24.71330278 152.7181573 25.97590084 151.21822373 27.9375 149.625 C28.48148438 149.16351563 29.02546875 148.70203125 29.5859375 148.2265625 C31.5625 147 31.5625 147 37.5625 145 C37.5625 128.17 37.5625 111.34 37.5625 94 C33.77136719 94.03480469 29.98023438 94.06960937 26.07421875 94.10546875 C22.41057082 94.12885151 18.74693113 94.14707544 15.08325195 94.16479492 C12.53308402 94.17990005 9.98294214 94.20038533 7.43286133 94.22631836 C3.77158181 94.26262504 0.11064515 94.27970915 -3.55078125 94.29296875 C-4.6946077 94.30845261 -5.83843414 94.32393646 -7.016922 94.33988953 C-8.60823189 94.34022942 -8.60823189 94.34022942 -10.23168945 94.34057617 C-11.16656693 94.34723801 -12.1014444 94.35389984 -13.06465149 94.36076355 C-15.4375 94 -15.4375 94 -17.23583984 92.75244141 C-18.73758456 90.5623716 -18.83197802 89.26543452 -18.86987305 86.62036133 C-18.88966721 85.73967484 -18.90946136 84.85898834 -18.92985535 83.95161438 C-18.93944023 82.53117073 -18.93944023 82.53117073 -18.94921875 81.08203125 C-18.96716995 80.10965012 -18.98512115 79.13726898 -19.00361633 78.13542175 C-19.05782467 75.02782536 -19.09164898 71.92038348 -19.125 68.8125 C-19.15816376 66.70635866 -19.19265253 64.60023773 -19.22851562 62.49414062 C-19.31355731 57.32953839 -19.38031841 52.16498281 -19.4375 47 C-19.98898712 46.73404526 -20.54047424 46.46809052 -21.1086731 46.19407654 C-21.83094086 45.84055618 -22.55320862 45.48703583 -23.29736328 45.12280273 C-24.0138504 44.77434799 -24.73033752 44.42589325 -25.46853638 44.06687927 C-27.91922283 42.73897938 -29.5396395 41.204353 -31.3125 39.0625 C-31.86679688 38.41410156 -32.42109375 37.76570313 -32.9921875 37.09765625 C-37.46190337 30.61052808 -37.22629786 23.6139751 -36.4375 16 C-34.30557613 8.57297219 -30.1320133 3.75298473 -23.4375 0 C-16.08708392 -3.51119049 -7.39622342 -3.32830054 0 0 Z M-21.4375 17 C-23.04180264 20.20860529 -22.91855318 23.5190457 -22.4375 27 C-20.62232784 30.09251553 -19.15105858 31.58688714 -16.0625 33.375 C-12.74685265 34.16443985 -10.71107609 33.95479302 -7.4375 33 C-3.83449304 30.53366817 -3.83449304 30.53366817 -1.4375 27 C-0.83021155 21.87629602 -0.83021155 21.87629602 -2.484375 17.17578125 C-5.39474144 13.64054202 -7.15393764 12.14810335 -11.6875 11.625 C-16.63022958 12.11927296 -17.97578301 13.53828301 -21.4375 17 Z M94.5625 52 C92.81448128 54.88803093 92.55330283 56.56773304 92.625 59.9375 C93.86154782 63.97688954 95.4785207 66.11714978 98.5625 69 C102.65101312 70.26372224 104.77065353 70.2741007 108.8125 68.875 C111.90477609 66.76662994 113.14849386 65.45645946 114.5625 62 C115.0523067 58.63257892 115.3115388 56.24007534 113.5078125 53.25390625 C111.73020219 51.06081898 110.10664063 49.27207031 107.5625 48 C101.89637618 47.4551804 98.89611172 48.27107829 94.5625 52 Z M35.5625 162 C33.21187186 165.205402 33.16442085 168.09882438 33.5625 172 C34.99082336 175.41210581 36.24648742 176.78453688 39.3125 178.875 C43.32638589 180.26442204 45.48965094 180.18482882 49.5625 179 C53.09934081 176.00137409 55.34525426 173.91176255 55.875 169.25 C55.48003151 165.14232771 54.1567368 163.17073386 51.5625 160 C45.91359664 155.85747087 40.56537422 157.90673927 35.5625 162 Z M-174.4375 230 C-181.74509292 241.44457799 -181.74509292 241.44457799 -178.4375 277 C-140.4875 277 -102.5375 277 -63.4375 277 C-60.12990708 241.44457799 -60.12990708 241.44457799 -67.4375 230 C-72.40578741 225.79377929 -78.32021153 225.41989317 -84.57226562 225.48242188 C-85.44815842 225.4754126 -86.32405121 225.46840332 -87.22648621 225.46118164 C-90.09923749 225.44368913 -92.97099007 225.45519315 -95.84375 225.46875 C-97.85339546 225.46605257 -99.86303965 225.46216806 -101.87268066 225.45715332 C-106.0755664 225.45127011 -110.27811108 225.45978333 -114.48095703 225.47851562 C-119.85430299 225.5013043 -125.22684965 225.48817492 -130.60016632 225.46422577 C-134.74731411 225.44973601 -138.89427401 225.45438837 -143.04142761 225.46473694 C-145.02207027 225.46739544 -147.00273027 225.46416549 -148.98335266 225.45481873 C-151.75693616 225.4446007 -154.52924521 225.4602272 -157.30273438 225.48242188 C-158.11232101 225.47432495 -158.92190765 225.46622803 -159.75602722 225.45788574 C-165.18114922 225.53786174 -170.19300926 226.40655554 -174.4375 230 Z M156.5625 230 C149.25490708 241.44457799 149.25490708 241.44457799 152.5625 277 C190.5125 277 228.4625 277 267.5625 277 C270.87009292 241.44457799 270.87009292 241.44457799 263.5625 230 C258.59421259 225.79377929 252.67978847 225.41989317 246.42773438 225.48242188 C245.55184158 225.4754126 244.67594879 225.46840332 243.77351379 225.46118164 C240.90076251 225.44368913 238.02900993 225.45519315 235.15625 225.46875 C233.14660454 225.46605257 231.13696035 225.46216806 229.12731934 225.45715332 C224.9244336 225.45127011 220.72188892 225.45978333 216.51904297 225.47851562 C211.14569701 225.5013043 205.77315035 225.48817492 200.39983368 225.46422577 C196.25268589 225.44973601 192.10572599 225.45438837 187.95857239 225.46473694 C185.97792973 225.46739544 183.99726973 225.46416549 182.01664734 225.45481873 C179.24306384 225.4446007 176.47075479 225.4602272 173.69726562 225.48242188 C172.88767899 225.47432495 172.07809235 225.46622803 171.24397278 225.45788574 C165.81885078 225.53786174 160.80699074 226.40655554 156.5625 230 Z M-178.4375 291 C-178.4375 305.52 -178.4375 320.04 -178.4375 335 C-140.4875 335 -102.5375 335 -63.4375 335 C-63.4375 320.48 -63.4375 305.96 -63.4375 291 C-101.3875 291 -139.3375 291 -178.4375 291 Z M152.5625 291 C152.5625 305.52 152.5625 320.04 152.5625 335 C190.5125 335 228.4625 335 267.5625 335 C267.5625 320.48 267.5625 305.96 267.5625 291 C229.6125 291 191.6625 291 152.5625 291 Z M-178.4375 348 C-182.22795134 384.51617341 -182.22795134 384.51617341 -174.4375 395 C-169.46602911 399.36467806 -165.43915123 399.57715638 -159.13085938 399.51757812 C-157.75411797 399.52809204 -157.75411797 399.52809204 -156.3495636 399.53881836 C-153.32648138 399.55637193 -150.30434115 399.54478479 -147.28125 399.53125 C-145.17427389 399.53394567 -143.067299 399.53782871 -140.96032715 399.54284668 C-136.54878878 399.54873817 -132.13757482 399.54018983 -127.72607422 399.52148438 C-122.07672045 399.49869529 -116.42812685 399.51182021 -110.77880096 399.53577423 C-106.42928357 399.5502415 -102.07994583 399.5456219 -97.73042297 399.53526306 C-95.64764821 399.53259836 -93.56485703 399.53585649 -91.48210144 399.54518127 C-88.56900953 399.55536194 -85.65714159 399.53982417 -82.74414062 399.51757812 C-81.45815727 399.52972351 -81.45815727 399.52972351 -80.14619446 399.54211426 C-74.77993554 399.4663526 -71.61702345 398.66939176 -67.4375 395 C-59.64704866 384.51617341 -59.64704866 384.51617341 -63.4375 348 C-101.3875 348 -139.3375 348 -178.4375 348 Z M152.5625 348 C148.77204866 384.51617341 148.77204866 384.51617341 156.5625 395 C161.53397089 399.36467806 165.56084877 399.57715638 171.86914062 399.51757812 C173.24588203 399.52809204 173.24588203 399.52809204 174.6504364 399.53881836 C177.67351862 399.55637193 180.69565885 399.54478479 183.71875 399.53125 C185.82572611 399.53394567 187.932701 399.53782871 190.03967285 399.54284668 C194.45121122 399.54873817 198.86242518 399.54018983 203.27392578 399.52148438 C208.92327955 399.49869529 214.57187315 399.51182021 220.22119904 399.53577423 C224.57071643 399.5502415 228.92005417 399.5456219 233.26957703 399.53526306 C235.35235179 399.53259836 237.43514297 399.53585649 239.51789856 399.54518127 C242.43099047 399.55536194 245.34285841 399.53982417 248.25585938 399.51757812 C249.54184273 399.52972351 249.54184273 399.52972351 250.85380554 399.54211426 C256.22006446 399.4663526 259.38297655 398.66939176 263.5625 395 C271.35295134 384.51617341 271.35295134 384.51617341 267.5625 348 C229.6125 348 191.6625 348 152.5625 348 Z " fill="#000000" transform="translate(211.4375,84)"/>
<path d="M0 0 C16.09218403 12.95828315 31.81897206 31.48040031 35.58984375 52.4296875 C36.51023437 52.38328125 37.430625 52.336875 38.37890625 52.2890625 C56.46711828 51.773309 72.24329548 57.67530521 85.47729492 70.17016602 C98.32834267 82.86999955 104.46022278 98.84585686 105.02734375 116.8046875 C104.605002 134.48795287 98.01591886 150.73720343 85.58984375 163.4296875 C71.14478026 175.96433774 55.95686051 181.56655941 36.9543457 181.59082031 C35.54330566 181.59826767 35.54330566 181.59826767 34.10375977 181.60586548 C31.01187393 181.6203961 27.92003927 181.62727097 24.828125 181.6328125 C22.6729482 181.63856789 20.5177714 181.64432557 18.3625946 181.65008545 C13.85460167 181.66056699 9.34662644 181.66642944 4.83862305 181.66992188 C-0.94189601 181.67542538 -6.72218176 181.69950486 -12.50262737 181.72789383 C-16.94894607 181.74649165 -21.39520796 181.75172411 -25.84156227 181.75325775 C-27.97345072 181.75628716 -30.1053381 181.76432537 -32.23718834 181.77744293 C-35.21258956 181.79445656 -38.18741197 181.79263554 -41.1628418 181.78613281 C-42.48530663 181.79995499 -42.48530663 181.79995499 -43.83448792 181.8140564 C-49.78571774 181.77321716 -49.78571774 181.77321716 -52.95710754 180.02850342 C-54.75682422 178.04824242 -54.92292914 177.07929308 -54.84765625 174.4296875 C-54.84572266 173.40875 -54.84572266 173.40875 -54.84375 172.3671875 C-54.28251236 169.85931479 -53.38862665 169.04249835 -51.41015625 167.4296875 C-48.32564662 167.1350231 -45.44135364 167.02329939 -42.35571289 167.04492188 C-40.96482452 167.03686272 -40.96482452 167.03686272 -39.5458374 167.02864075 C-37.52916105 167.01884808 -35.51244249 167.01592308 -33.49574471 167.01899719 C-30.29533461 167.02347243 -27.09547841 167.00947901 -23.89512634 166.99060059 C-17.08764554 166.9537631 -10.28022201 166.94011862 -3.47265625 166.9296875 C4.38718431 166.91758259 12.2467569 166.89580587 20.10647774 166.84968567 C23.24377842 166.83619933 26.38073326 166.84027328 29.51805115 166.84509277 C46.94271798 166.79690815 62.42102272 164.63687635 75.58984375 151.9921875 C85.19714965 141.55939097 89.9912505 128.66213128 89.80078125 114.453125 C88.90060031 101.55053154 83.3732946 88.10734601 73.58984375 79.4296875 C64.79304709 72.83885677 54.66104859 67.44124947 43.4921875 67.21875 C42.52603516 67.19039063 41.55988281 67.16203125 40.56445312 67.1328125 C38.53599529 67.08063352 36.50731811 67.03639108 34.47851562 67 C33.51365234 66.9690625 32.54878906 66.938125 31.5546875 66.90625 C30.23392212 66.876521 30.23392212 66.876521 28.88647461 66.84619141 C26.1105143 66.34275904 25.26305707 65.67016251 23.58984375 63.4296875 C22.60967263 60.66265575 21.73407607 57.92751826 20.90234375 55.1171875 C13.97061417 33.2821301 -0.1110399 15.93666816 -20.31445312 5.09521484 C-40.21745633 -5.09049597 -63.68206011 -8.25626588 -85.35546875 -1.953125 C-103.40397681 3.93435624 -120.35962825 14.54749742 -130.91015625 30.73046875 C-132.41015625 32.4296875 -132.41015625 32.4296875 -134.49609375 32.85546875 C-135.62917969 32.79939453 -135.62917969 32.79939453 -136.78515625 32.7421875 C-137.53539062 32.71769531 -138.285625 32.69320312 -139.05859375 32.66796875 C-141.41015625 32.4296875 -141.41015625 32.4296875 -143.73046875 31.9296875 C-156.9667537 29.45994337 -169.71895482 31.77430628 -181.22265625 38.6796875 C-189.63886199 44.47345232 -194.99448472 50.64922968 -199.62182617 59.68188477 C-200.9026826 62.1240959 -201.97058379 64.10287493 -204.20703125 65.765625 C-207.24174099 66.68034247 -210.28203235 67.17136737 -213.41015625 67.6796875 C-226.71472525 70.14750959 -237.78944333 76.50132243 -245.703125 87.6640625 C-253.58939452 100.14948341 -256.40543807 113.8134606 -253.34765625 128.3046875 C-249.44255691 142.35574589 -241.72179686 152.95463418 -229.0625 160.11328125 C-219.25281028 164.98200796 -210.25367994 166.57521979 -199.41333008 166.58740234 C-198.4224086 166.59248306 -197.43148712 166.59756378 -196.41053772 166.60279846 C-194.26619655 166.61347101 -192.12184446 166.62210331 -189.97748756 166.62891769 C-186.58622582 166.64073287 -183.1950899 166.66018923 -179.80387878 166.68203735 C-170.16462353 166.74358965 -160.52538422 166.79781372 -150.88598633 166.83105469 C-144.98510862 166.85194973 -139.08446555 166.8872016 -133.18372154 166.93181229 C-130.93382201 166.94600317 -128.68388104 166.95470165 -126.43393898 166.95786667 C-123.29530703 166.96275235 -120.15730387 166.98584652 -117.01879883 167.01318359 C-116.0852356 167.01017746 -115.15167236 167.00717133 -114.18981934 167.0040741 C-112.90927422 167.02071358 -112.90927422 167.02071358 -111.6028595 167.03768921 C-110.86123471 167.04099936 -110.11960993 167.0443095 -109.35551167 167.04771996 C-106.82421478 167.54473621 -105.93606029 168.37379151 -104.41015625 170.4296875 C-104.02023937 174.79675658 -103.94691556 176.73482647 -106.41015625 180.4296875 C-109.12715365 181.3353533 -110.7121329 181.55863437 -113.5043335 181.57012939 C-114.33660965 181.57583954 -115.1688858 181.58154968 -116.02638245 181.58743286 C-117.39149208 181.58910965 -117.39149208 181.58910965 -118.78417969 181.59082031 C-119.745634 181.59578522 -120.70708832 181.60075012 -121.69767761 181.60586548 C-124.88830275 181.62050276 -128.078878 181.62729529 -131.26953125 181.6328125 C-133.49375408 181.6385671 -135.7179769 181.6443248 -137.94219971 181.65008545 C-142.61625398 181.66060292 -147.29029103 181.66643924 -151.96435547 181.66992188 C-157.918781 181.67537751 -163.87297449 181.69933925 -169.82732773 181.72789383 C-174.4293684 181.74664201 -179.03135486 181.75173247 -183.63343048 181.75325775 C-185.82600407 181.75626251 -188.01857722 181.76421634 -190.21111298 181.77744293 C-220.49435497 181.94693503 -220.49435497 181.94693503 -233.72265625 174.7421875 C-234.38724854 174.39188477 -235.05184082 174.04158203 -235.73657227 173.68066406 C-251.75880038 164.98338363 -261.83835522 151.54339144 -267.44140625 134.24609375 C-272.09551452 116.64236016 -269.44438632 99.10050469 -260.77734375 83.26953125 C-251.92916566 68.25160324 -237.04885512 58.04181806 -220.41015625 53.4296875 C-219.71664062 53.34976563 -219.023125 53.26984375 -218.30859375 53.1875 C-214.5633429 52.71030588 -212.94359583 52.09953679 -210.53125 49.0703125 C-208.75228163 46.22703692 -207.07490892 43.34093408 -205.41015625 40.4296875 C-195.85860711 27.26403869 -180.28164727 19.03248825 -164.41015625 16.4296875 C-158.8209367 16.24910888 -153.25651117 16.58789541 -147.68164062 16.98632812 C-141.56508238 17.32614239 -141.56508238 17.32614239 -136.22363281 14.78466797 C-134.45545169 12.74807676 -132.92832178 10.65645394 -131.41015625 8.4296875 C-97.39177904 -26.35933256 -38.32445245 -29.60885429 0 0 Z " fill="#000000" transform="translate(338.41015625,34.5703125)"/>
<path d="M0 0 C0.96147949 -0.0038269 1.92295898 -0.00765381 2.91357422 -0.01159668 C4.9443466 -0.01431602 6.97515399 -0.00695329 9.00585938 0.00976562 C12.1140757 0.03117475 15.21998056 0.00996454 18.328125 -0.015625 C20.30208843 -0.01298173 22.27605043 -0.00785676 24.25 0 C25.17925293 -0.00809692 26.10850586 -0.01619385 27.06591797 -0.02453613 C33.45581843 0.06831618 33.45581843 0.06831618 36.7421875 2.34179688 C38.125 4.53125 38.125 4.53125 38.125 8.09375 C37.125 11.53125 37.125 11.53125 35.65014648 13.21899414 C31.7677843 15.23656126 28.03698433 14.97919751 23.72265625 14.96484375 C22.80794052 14.9700856 21.89322479 14.97532745 20.95079041 14.98072815 C19.01839207 14.98714466 17.08595465 14.98581615 15.15356445 14.97729492 C12.20127582 14.96878969 9.25092542 14.99754331 6.29882812 15.02929688 C4.41927141 15.03090916 2.53971128 15.03033083 0.66015625 15.02734375 C-0.66035988 15.04419472 -0.66035988 15.04419472 -2.0075531 15.06138611 C-6.12044463 15.01476501 -8.34290348 14.85173024 -11.93579102 12.68774414 C-13.875 10.53125 -13.875 10.53125 -14.4375 7.53125 C-12.92218136 -0.55044941 -6.84717797 -0.05966199 0 0 Z " fill="#000000" transform="translate(100.875,389.46875)"/>
<path d="M0 0 C0.91330078 -0.00619858 1.82660156 -0.01239716 2.76757812 -0.01878357 C4.6939996 -0.02587145 6.62048246 -0.02272576 8.546875 -0.01000977 C11.4907313 0.00386257 14.43141168 -0.03023636 17.375 -0.06835938 C19.25000078 -0.06931057 21.12500552 -0.06745172 23 -0.0625 C24.31581055 -0.08238731 24.31581055 -0.08238731 25.65820312 -0.10267639 C30.06696238 -0.0356477 31.95844953 0.16225199 35.59375 2.87524414 C37.5 5.56640625 37.5 5.56640625 37.5 9.25390625 C36.5 12.56640625 36.5 12.56640625 33.5 14.56640625 C31.4510498 14.83383179 31.4510498 14.83383179 29.07617188 14.85693359 C28.18514771 14.8696933 27.29412354 14.882453 26.37609863 14.89559937 C24.93696106 14.89893784 24.93696106 14.89893784 23.46875 14.90234375 C21.98755676 14.91232895 21.98755676 14.91232895 20.47644043 14.92251587 C18.3884467 14.93264195 16.30042061 14.9373329 14.21240234 14.93701172 C11.0121562 14.94138962 7.81328374 14.97772311 4.61328125 15.015625 C2.58594223 15.02149212 0.55859664 15.02546221 -1.46875 15.02734375 C-2.42817505 15.04171478 -3.3876001 15.05608582 -4.37609863 15.07089233 C-5.2671228 15.06473907 -6.15814697 15.05858582 -7.07617188 15.05224609 C-7.85988159 15.05509613 -8.64359131 15.05794617 -9.4510498 15.06088257 C-11.5 14.56640625 -11.5 14.56640625 -13.24523926 12.72354126 C-14.97874586 9.74336532 -15.06501531 7.95649814 -14.5 4.56640625 C-10.19950533 -0.21041589 -6.01432098 -0.03400594 0 0 Z " fill="#000000" transform="translate(432.5,328.43359375)"/>
<path d="M0 0 C1.3366571 -0.00218285 1.3366571 -0.00218285 2.70031738 -0.00440979 C4.57970457 -0.00275373 6.45910572 0.00877468 8.33837891 0.02954102 C11.20924698 0.0584979 14.07826735 0.0501435 16.94921875 0.03710938 C18.77865478 0.04334727 20.60808499 0.05173861 22.4375 0.0625 C23.29283325 0.05956436 24.1481665 0.05662872 25.02941895 0.05360413 C29.68700254 0.12705315 33.01332676 0.34766813 36.71875 3.49609375 C37.78125 6.93359375 37.78125 6.93359375 37.71875 10.49609375 C36.34790039 12.68554688 36.34790039 12.68554688 33.71875 14.49609375 C30.34459569 15.09705923 27.00968102 15.05636105 23.58984375 15.02734375 C22.60379654 15.03117065 21.61774933 15.03499756 20.6018219 15.03894043 C18.51977516 15.04165978 16.43769428 15.03429699 14.35571289 15.01757812 C11.1641047 14.99614649 7.97474181 15.01739119 4.78320312 15.04296875 C2.76041169 15.04032593 0.73762165 15.03520189 -1.28515625 15.02734375 C-2.71958824 15.03948914 -2.71958824 15.03948914 -4.18299866 15.05187988 C-5.07079514 15.03927124 -5.95859161 15.0266626 -6.87329102 15.01367188 C-7.65398453 15.0104895 -8.43467804 15.00730713 -9.23902893 15.00402832 C-11.28125 14.49609375 -11.28125 14.49609375 -13.02549744 12.65124512 C-14.76118882 9.67241173 -14.84622128 7.88592143 -14.28125 4.49609375 C-10.00050281 -0.23511745 -5.96914936 -0.07839903 0 0 Z " fill="#000000" transform="translate(101.28125,328.50390625)"/>
<path d="M0 0 C0.91330078 -0.00619858 1.82660156 -0.01239716 2.76757812 -0.01878357 C4.6939996 -0.02587145 6.62048246 -0.02272576 8.546875 -0.01000977 C11.4907313 0.00386257 14.43141168 -0.03023636 17.375 -0.06835938 C19.25000078 -0.06931057 21.12500552 -0.06745172 23 -0.0625 C24.31581055 -0.08238731 24.31581055 -0.08238731 25.65820312 -0.10267639 C30.09121726 -0.03527894 31.95464421 0.15321489 35.59375 2.91040039 C37.5 5.56640625 37.5 5.56640625 37.5 8.69140625 C36.4787498 11.62750056 35.88923391 12.68334733 33.5 14.56640625 C31.4957428 14.9540863 31.4957428 14.9540863 29.18383789 14.97045898 C27.8821743 14.98948524 27.8821743 14.98948524 26.55421448 15.00889587 C25.61980026 15.00596024 24.68538605 15.0030246 23.72265625 15 C22.75976181 15.00524185 21.79686737 15.0104837 20.80479431 15.0158844 C18.76806604 15.02230876 16.73130069 15.02096226 14.69458008 15.01245117 C11.57761529 15.00394749 8.46248648 15.0326869 5.34570312 15.06445312 C3.36718805 15.06606536 1.38866973 15.06548718 -0.58984375 15.0625 C-1.98842873 15.07935097 -1.98842873 15.07935097 -3.41526794 15.09654236 C-9.85407482 15.02718859 -9.85407482 15.02718859 -13.08422852 12.72290039 C-15.04427488 9.73737021 -15.15593524 8.06472754 -14.5 4.56640625 C-10.19355284 -0.20740307 -6.017854 -0.03402591 0 0 Z " fill="#000000" transform="translate(101.5,449.43359375)"/>
<path d="M0 0 C0.96385117 -0.00145523 1.92770233 -0.00291046 2.92076111 -0.00440979 C4.95574979 -0.00275153 6.9907511 0.0088015 9.02563477 0.02954102 C12.14458293 0.05852164 15.26183422 0.05014323 18.38085938 0.03710938 C20.35808119 0.04334604 22.33529764 0.05173641 24.3125 0.0625 C25.71412132 0.05809654 25.71412132 0.05809654 27.14405823 0.05360413 C28.01183395 0.0662883 28.87960968 0.07897247 29.77368164 0.09204102 C30.53661026 0.097444 31.29953888 0.10284698 32.08558655 0.1084137 C34.64104569 0.6027118 35.5033736 1.46574678 37.08984375 3.49609375 C38.08984375 6.37109375 38.08984375 6.37109375 38.08984375 9.49609375 C36.09483479 12.27576876 34.48424133 14.18063379 31.046875 14.95828247 C28.54782131 15.14175369 26.09539116 15.16286914 23.58984375 15.125 C22.21989258 15.12861794 22.21989258 15.12861794 20.82226562 15.13230896 C18.89578906 15.13133165 16.96928402 15.11796568 15.04296875 15.09301758 C12.09928701 15.05870383 9.15860786 15.07236528 6.21484375 15.09179688 C4.33983101 15.08489814 2.464826 15.07522552 0.58984375 15.0625 C-0.28736328 15.06745987 -1.16457031 15.07241974 -2.06835938 15.07752991 C-6.16473104 14.99883629 -8.39369142 14.80812458 -11.96875 12.64819336 C-13.91015625 10.49609375 -13.91015625 10.49609375 -14.47265625 7.49609375 C-12.95262399 -0.61074499 -6.85956969 -0.0826481 0 0 Z " fill="#000000" transform="translate(431.91015625,389.50390625)"/>
<path d="M0 0 C0.91330078 -0.00619858 1.82660156 -0.01239716 2.76757812 -0.01878357 C4.6939996 -0.02587145 6.62048246 -0.02272576 8.546875 -0.01000977 C11.4907313 0.00386257 14.43141168 -0.03023636 17.375 -0.06835938 C19.25000078 -0.06931057 21.12500552 -0.06745172 23 -0.0625 C24.31581055 -0.08238731 24.31581055 -0.08238731 25.65820312 -0.10267639 C30.09121726 -0.03527894 31.95464421 0.15321489 35.59375 2.91040039 C37.5 5.56640625 37.5 5.56640625 37.5 8.69140625 C36.4787498 11.62750056 35.88923391 12.68334733 33.5 14.56640625 C31.4957428 14.9540863 31.4957428 14.9540863 29.18383789 14.97045898 C27.8821743 14.98948524 27.8821743 14.98948524 26.55421448 15.00889587 C25.61980026 15.00596024 24.68538605 15.0030246 23.72265625 15 C22.75976181 15.00524185 21.79686737 15.0104837 20.80479431 15.0158844 C18.76806604 15.02230876 16.73130069 15.02096226 14.69458008 15.01245117 C11.57761529 15.00394749 8.46248648 15.0326869 5.34570312 15.06445312 C3.36718805 15.06606536 1.38866973 15.06548718 -0.58984375 15.0625 C-1.98842873 15.07935097 -1.98842873 15.07935097 -3.41526794 15.09654236 C-9.85407482 15.02718859 -9.85407482 15.02718859 -13.08422852 12.72290039 C-15.04427488 9.73737021 -15.15593524 8.06472754 -14.5 4.56640625 C-10.19355284 -0.20740307 -6.017854 -0.03402591 0 0 Z " fill="#000000" transform="translate(432.5,449.43359375)"/>
<path d="M0 0 C1.9375 1.625 1.9375 1.625 3 4 C2.875 7.625 2.875 7.625 2 11 C-1.69486103 13.46324069 -3.63293092 13.38991688 -8 13 C-9.9375 11.9375 -9.9375 11.9375 -11 10 C-11.38991688 5.63293092 -11.46324069 3.69486103 -9 0 C-5.4314543 -1.18951523 -3.60804584 -0.97717908 0 0 Z " fill="#000000" transform="translate(390,442)"/>
<path d="M0 0 C3 2 3 2 4 5.3125 C4 9 4 9 1.9375 12 C-1 14 -1 14 -4.125 14 C-8.51648352 12.47252747 -8.51648352 12.47252747 -10 10 C-10.36528977 6.5906288 -10.6140629 4.11976176 -8.9375 1.0625 C-5.91362524 -0.5957539 -3.37613017 -0.30144019 0 0 Z " fill="#000000" transform="translate(389,338)"/>
<path d="M0 0 C2.66010658 1.59606395 2.97557088 2.92976629 4 5.875 C4 9 4 9 2 11.9375 C-1 14 -1 14 -4.6875 14 C-8 13 -8 13 -10 10 C-10.53748871 3.98012647 -10.53748871 3.98012647 -8.9375 1.0625 C-5.88023824 -0.6140629 -3.4093712 -0.36528977 0 0 Z " fill="#000000" transform="translate(58,338)"/>
<path d="M0 0 C1.9375 1.6875 1.9375 1.6875 3 4 C2.87304813 7.11032079 2.47953174 9.20078043 0.875 11.875 C-2.12446786 13.67468071 -4.59386668 13.36494286 -8 13 C-9.9375 11.9375 -9.9375 11.9375 -11 10 C-11.38991688 5.63293092 -11.46324069 3.69486103 -9 0 C-5.4314543 -1.18951523 -3.60804584 -0.97717908 0 0 Z " fill="#000000" transform="translate(59,442)"/>
<path d="M0 0 C3.4375 1 3.4375 1 5.4375 2.6875 C6.81444267 5.87167993 6.417724 7.70924801 5.4375 11 C4.25 12.875 4.25 12.875 2.4375 14 C-0.85488472 14.42030443 -2.90207342 14.295454 -5.9375 12.9375 C-7.5625 11 -7.5625 11 -8.0625 7.5625 C-7.5625 4 -7.5625 4 -6 1.5 C-3.5625 0 -3.5625 0 0 0 Z " fill="#000000" transform="translate(55.5625,380)"/>
<path d="M0 0 C2.67599928 2.75709017 3 4.30504933 3 8.125 C2 11 2 11 -0.25 12.9375 C-3.44916359 14.17354048 -4.80462419 14.17724372 -8 13 C-9.8125 11.875 -9.8125 11.875 -11 10 C-11.36248449 6.61681143 -11.58433618 4.13215135 -10 1.0625 C-6.75215027 -0.66292017 -3.57481814 -0.78779776 0 0 Z " fill="#000000" transform="translate(59,461)"/>
<path d="M0 0 C3.5 1.25 3.5 1.25 5.5 4.25 C5.3125 7.8125 5.3125 7.8125 4.5 11.25 C0.80513897 13.71324069 -1.13293092 13.63991688 -5.5 13.25 C-7.4375 12.1875 -7.4375 12.1875 -8.5 10.25 C-9.15439093 4.14235127 -9.15439093 4.14235127 -7.125 1.375 C-4.14144256 -0.69053977 -3.81438324 -0.81736784 0 0 Z " fill="#000000" transform="translate(387.5,399.75)"/>
<path d="M0 0 C3.4375 1 3.4375 1 5.4375 2.6875 C6.81444267 5.87167993 6.417724 7.70924801 5.4375 11 C4.25 12.875 4.25 12.875 2.4375 14 C-1.19281776 14.54068562 -2.88464079 14.46379841 -5.9375 12.375 C-8.04956506 9.28813568 -8.17445145 7.6717087 -7.5625 4 C-5.27647022 0.43379354 -4.27192374 0 0 0 Z " fill="#000000" transform="translate(386.5625,380)"/>
<path d="M0 0 C2.67599928 2.75709017 3 4.30504933 3 8.125 C2 11 2 11 -0.1875 13 C-3.86933665 14.30909747 -5.51453433 13.62655064 -9 12 C-11 10 -11 10 -11.3125 6.5625 C-11 3 -11 3 -10 1.0625 C-6.75215027 -0.66292017 -3.57481814 -0.78779776 0 0 Z " fill="#000000" transform="translate(390,461)"/>
<path d="M0 0 C2.08483763 2.5380632 2.01039522 3.82674638 1.8125 7.125 C1 10 1 10 -2 12 C-8.01987353 12.53748871 -8.01987353 12.53748871 -10.9375 10.9375 C-12.6140629 7.88023824 -12.36528977 5.4093712 -12 2 C-8.68413678 -2.73694745 -4.87937331 -2.18014552 0 0 Z " fill="#000000" transform="translate(60,401)"/>
<path d="M0 0 C3.3125 1.4375 3.3125 1.4375 5.3125 4.4375 C5.125 8 5.125 8 4.3125 11.4375 C0.61763897 13.90074069 -1.32043092 13.82741688 -5.6875 13.4375 C-7.625 12.375 -7.625 12.375 -8.6875 10.4375 C-9.1875 7 -9.1875 7 -8.6875 3.4375 C-5.77408127 -0.18220206 -4.63209678 -0.70659103 0 0 Z " fill="#000000" transform="translate(387.6875,318.5625)"/>
<path d="M0 0 C2.01230036 2.56110954 2.00927238 3.84546036 1.8125 7.125 C1 10 1 10 -2 12 C-8.01987353 12.53748871 -8.01987353 12.53748871 -10.9375 10.9375 C-12.6140629 7.88023824 -12.36528977 5.4093712 -12 2 C-10.56030286 -0.1595457 -9.48115013 -0.79150161 -7.125 -1.8125 C-4.20556993 -2.07009677 -2.5525683 -1.41062985 0 0 Z " fill="#000000" transform="translate(60,320)"/>
</svg>
