<svg version="1.1" xmlns="http://www.w3.org/2000/svg" width="512" height="512" class="icon">
<path d="M0 0 C5.82485779 3.51996782 10.54466582 8.98962934 12.5625 15.5 C13.36764105 23.33608208 13.68710392 31.11922577 8.5625 37.5 C4.31180414 41.96367435 -0.09805416 46.28017817 -6.51953125 46.60546875 C-8.49242511 46.62274453 -10.46566309 46.56684193 -12.4375 46.5 C-12.52954712 47.13565384 -12.62159424 47.77130768 -12.71643066 48.42622375 C-13.71639004 52.68885319 -15.34501749 56.62301458 -16.97460938 60.68041992 C-17.34177441 61.604386 -17.70893944 62.52835207 -18.08723068 63.48031712 C-19.31442769 66.56536889 -20.54778167 69.64791956 -21.78125 72.73046875 C-22.65509738 74.92282076 -23.52860487 77.11530827 -24.40179443 79.30792236 C-26.26905837 83.99415071 -28.13915409 88.67923578 -30.01135254 93.36349487 C-32.45037567 99.46625927 -34.88420986 105.57107587 -37.31624222 111.67662907 C-46.63375106 135.06624311 -55.9824955 158.44260128 -65.465271 181.76581383 C-66.65366263 184.68956781 -67.84053236 187.61393461 -69.02685547 190.53852844 C-69.78806651 192.41477229 -70.54929667 194.29100837 -71.31054688 196.16723633 C-71.67773331 197.07232343 -72.04491974 197.97741053 -72.42323303 198.90992451 C-74.58011328 204.22250552 -76.74944059 209.52979709 -78.92792892 214.83355141 C-80.26119407 218.08641802 -81.58413565 221.3434094 -82.90436554 224.60158539 C-83.51178993 226.09391622 -84.12378095 227.58439788 -84.74071503 229.07282257 C-85.57372821 231.08357928 -86.39073661 233.10012878 -87.20410156 235.11889648 C-87.89224945 236.7986985 -87.89224945 236.7986985 -88.59429932 238.51243591 C-89.50553469 241.74105529 -89.48737695 243.34661868 -88.4375 246.5 C-87.14177617 248.52456848 -85.8101682 250.52678947 -84.4375 252.5 C-82.28385565 258.96093305 -82.12430024 267.64188116 -84.9375 273.9375 C-88.45448725 279.75742553 -93.92800694 284.49195463 -100.4375 286.5 C-103.70703125 286.80078125 -103.70703125 286.80078125 -107.25 286.8125 C-108.41144531 286.82925781 -109.57289063 286.84601563 -110.76953125 286.86328125 C-114.16910665 286.52658209 -115.2155992 286.12927072 -118.04272461 284.61669922 C-120.78134605 283.56885815 -121.96274287 283.33590999 -124.76387024 284.30406189 C-127.42867642 285.82865097 -129.91501975 287.49694484 -132.421875 289.26953125 C-133.35872131 289.89848801 -134.29556763 290.52744476 -135.26080322 291.17546082 C-138.2553031 293.19475051 -141.22098969 295.25236987 -144.1875 297.3125 C-146.16748249 298.65823393 -148.14923827 300.00136272 -150.1328125 301.34179688 C-153.9218881 303.90618996 -157.69398076 306.49291989 -161.45507812 309.09814453 C-164.41876409 311.14276318 -167.39556511 313.12820239 -170.46679688 315.00732422 C-171.55541016 315.67908691 -172.64402344 316.35084961 -173.765625 317.04296875 C-174.66700195 317.57301514 -175.56837891 318.10306152 -176.49707031 318.64916992 C-179.20830952 321.23521728 -179.20514201 323.33602048 -179.4375 327 C-179.42589844 328.11632812 -179.41429687 329.23265625 -179.40234375 330.3828125 C-179.46497253 335.93589727 -181.54749092 339.50718708 -185.3046875 343.46875 C-192.22219349 349.83807627 -197.63233204 350.98055117 -206.9921875 350.8046875 C-214.90959883 350.10450827 -219.04322493 346.385806 -224.08984375 340.5 C-225.47318686 338.44703863 -225.90792537 336.88821676 -226.4375 334.5 C-233.82131683 334.38903635 -241.20254702 334.35677172 -248.5871582 334.37792969 C-251.09635061 334.37598897 -253.60559658 334.35636068 -256.11450195 334.31835938 C-259.73287524 334.26667858 -263.34628455 334.27966551 -266.96484375 334.3046875 C-268.63413185 334.26007889 -268.63413185 334.26007889 -270.33714294 334.21456909 C-275.2324685 334.30350612 -278.26125589 334.53651205 -282.12739563 337.70335388 C-284.40180497 340.21141191 -286.448004 342.76290551 -288.4375 345.5 C-289.63826172 346.94826172 -289.63826172 346.94826172 -290.86328125 348.42578125 C-291.48589844 349.21339844 -292.10851562 350.00101562 -292.75 350.8125 C-296.64070708 355.62665588 -300.76750466 360.14924334 -304.99536133 364.66333008 C-308.11274726 368.01064243 -311.07309167 371.42986788 -313.9375 375 C-319.11903257 381.44854965 -324.70307099 387.53993606 -330.4375 393.5 C-331.04287598 394.37277588 -331.64825195 395.24555176 -332.27197266 396.14477539 C-337.37127696 399.9387742 -342.69538091 399.19329803 -348.8828125 399.12890625 C-350.21695143 399.12973615 -351.55109024 399.1322001 -352.88522339 399.13621521 C-355.68128256 399.13907041 -358.47653959 399.12441371 -361.27246094 399.09692383 C-364.82639515 399.0630383 -368.3788773 399.06879429 -371.93287849 399.0875864 C-374.69051821 399.09825324 -377.44783102 399.0891288 -380.20544052 399.07420158 C-382.14330481 399.06660999 -384.0812093 399.07381907 -386.01907349 399.08143616 C-398.66097443 398.9151969 -408.31845737 395.53151342 -417.34375 386.6171875 C-425.51501983 377.7880612 -428.73631336 368.23412484 -428.62518311 356.28213501 C-428.29042497 351.31982197 -427.03759676 346.62460491 -425.7890625 341.82421875 C-425.50479401 340.69281967 -425.22052551 339.56142059 -424.92764282 338.39573669 C-423.98452574 334.65651898 -423.02399999 330.92202941 -422.0625 327.1875 C-421.56351705 325.22891225 -421.06625688 323.26989284 -420.56920624 321.3108139 C-418.78824982 314.29214396 -416.98902985 307.27827112 -415.18105316 300.26651764 C-413.78563171 294.85448789 -412.3960892 289.44097221 -411.00878906 284.02685547 C-408.77840659 275.32563775 -406.53435472 266.6280016 -404.28380585 257.93198013 C-403.68846445 255.62873127 -403.09513891 253.32497105 -402.5022583 251.02108765 C-401.56501733 247.3813419 -400.62067165 243.74350972 -399.67090988 240.1070118 C-399.32210866 238.76734846 -398.97557 237.42709364 -398.6314888 236.08621025 C-398.15814112 234.24349231 -397.67546072 232.40317935 -397.19238281 230.56298828 C-396.92451965 229.53150665 -396.65665649 228.50002502 -396.38067627 227.43728638 C-394.858115 222.69565047 -393.64812567 219.30708378 -389.4375 216.5 C-385.69473448 216.01181319 -383.91673945 216.2231061 -380.625 218.125 C-377.85549622 221.13188982 -377.69177635 222.42216072 -377.4375 226.5 C-377.97377968 229.96151177 -378.86722865 233.30929033 -379.76953125 236.69140625 C-380.03306396 237.71703171 -380.29659668 238.74265717 -380.56811523 239.79936218 C-381.45097547 243.2233874 -382.35068216 246.64276399 -383.25 250.0625 C-383.87374184 252.47269689 -384.49635754 254.88318545 -385.11791992 257.29394531 C-388.40193324 269.99896893 -391.74813701 282.68762432 -395.09638977 295.37583923 C-396.54283342 300.85815628 -397.98438891 306.34175718 -399.42542553 311.82549763 C-400.63036597 316.40720066 -401.84470046 320.98628423 -403.06635475 325.56355762 C-403.83442884 328.44799967 -404.59521353 331.33433151 -405.3543396 334.22113991 C-405.70790481 335.55929238 -406.06452717 336.89664175 -406.42456055 338.23306847 C-410.98945545 354.49858001 -410.98945545 354.49858001 -407.4375 370.5 C-404.45729883 375.54341737 -399.78520793 378.33762976 -394.4375 380.5 C-385.90357788 382.00671373 -377.24689201 381.98555071 -368.60498047 382.12475586 C-366.579737 382.16652183 -364.55480234 382.22799292 -362.53076172 382.30932617 C-350.86457287 383.14307286 -350.86457287 383.14307286 -340.20141602 379.41186523 C-337.91684049 376.89125366 -336.16252363 374.42436604 -334.4375 371.5 C-333.23673828 370.05173828 -333.23673828 370.05173828 -332.01171875 368.57421875 C-331.38910156 367.78660156 -330.76648438 366.99898438 -330.125 366.1875 C-326.23429292 361.37334412 -322.10749534 356.85075666 -317.87963867 352.33666992 C-313.98649359 348.15638141 -310.37835955 343.8004135 -306.80859375 339.33984375 C-303.50453755 335.38259686 -299.98628277 331.63728052 -296.421875 327.9140625 C-292.68766146 324.15900478 -292.68766146 324.15900478 -290.4375 319.5 C-291.18776963 317.39966054 -291.18776963 317.39966054 -292.625 315.375 C-298.01264332 306.36615379 -299.95686731 297.10397269 -297.88195801 286.71968079 C-296.12642527 279.75628719 -294.00749825 273.03153083 -291.53125 266.29296875 C-291.1652771 265.28333572 -290.7993042 264.2737027 -290.42224121 263.23347473 C-289.65521862 261.12086071 -288.88537397 259.00926929 -288.11279297 256.89868164 C-286.93480782 253.68014431 -285.76550284 250.45855642 -284.59765625 247.23632812 C-283.84685438 245.17169303 -283.09556914 243.10723363 -282.34375 241.04296875 C-281.99679077 240.08867477 -281.64983154 239.1343808 -281.2923584 238.15116882 C-279.47740478 233.19851707 -277.570189 228.32466989 -275.4375 223.5 C-276.71367187 223.51740234 -276.71367187 223.51740234 -278.015625 223.53515625 C-286.2331697 223.59635073 -294.38840022 223.37517606 -302.59082031 222.85571289 C-310.86961903 222.37091059 -319.14804538 222.45666903 -327.4375 222.5 C-329.5841572 228.64554585 -331.72980497 234.79144361 -333.875 240.9375 C-334.20840393 241.89258453 -334.54180786 242.84766907 -334.88531494 243.83169556 C-339.16084342 256.08133946 -343.42339542 268.33535647 -347.66540527 280.59664917 C-350.48265221 288.7387293 -353.30844203 296.87781402 -356.14001465 305.0149231 C-358.02559064 310.43422745 -359.90685795 315.85496768 -361.78076172 321.27832031 C-363.719491 326.88753518 -365.67000562 332.49252894 -367.628479 338.09487915 C-368.37081334 340.2246212 -369.10911606 342.35577316 -369.84320068 344.4883728 C-370.85999271 347.44013017 -371.89108933 350.38650927 -372.92578125 353.33203125 C-373.22298569 354.20566315 -373.52019012 355.07929504 -373.82640076 355.97940063 C-375.37120105 360.32695939 -376.63491559 363.62383765 -380.4375 366.5 C-384.03130604 367.64695938 -385.70496252 367.816323 -389.1875 366.3125 C-391.60317053 364.36654318 -392.61079884 363.47612417 -393.4375 360.5 C-392.9351117 354.30286272 -390.9923228 348.78990127 -388.9296875 342.953125 C-388.57236038 341.92572708 -388.21503326 340.89832916 -387.84687805 339.83979797 C-386.67477771 336.47439519 -385.49369976 333.11221866 -384.3125 329.75 C-383.49201654 327.39985987 -382.67211743 325.04951565 -381.8527832 322.69897461 C-380.18574014 317.91968477 -378.51512815 313.1416668 -376.84130859 308.36474609 C-374.67426423 302.17942699 -372.51653824 295.99091159 -370.36328125 289.80078125 C-367.03141647 280.22551071 -363.68979391 270.65368371 -360.34161377 261.08410645 C-359.72704027 259.32755391 -359.11258325 257.57096063 -358.49822998 255.81433105 C-356.64494837 250.51533605 -354.79001529 245.21692455 -352.93252563 239.91940308 C-352.35755122 238.27918616 -351.78297932 236.63882808 -351.20883179 234.99832153 C-350.42438619 232.75753322 -349.63823158 230.51735226 -348.8515625 228.27734375 C-348.6200499 227.61503754 -348.38853729 226.95273132 -348.15000916 226.27035522 C-347.33490569 223.95394879 -346.53693979 221.69887958 -345.4375 219.5 C-346.45199219 219.39558594 -347.46648437 219.29117188 -348.51171875 219.18359375 C-359.72402614 217.23120192 -369.61075105 210.45630522 -376.4375 201.5 C-387.46441427 184.22029544 -386.05042567 168.13871601 -382.59375 148.84375 C-382.30130916 147.16671478 -382.00986371 145.48950571 -381.71936035 143.81213379 C-380.95862645 139.43269388 -380.18648009 135.05535105 -379.41119385 130.6784668 C-378.16767187 123.64706384 -376.94149593 116.61261873 -375.71586609 109.57807922 C-375.28741492 107.12898961 -374.85388491 104.68084124 -374.41955566 102.23278809 C-374.1565478 100.73528934 -373.89364339 99.23777242 -373.63085938 97.74023438 C-373.50929977 97.06281189 -373.38774017 96.3853894 -373.26249695 95.68743896 C-372.71399762 92.54021482 -372.4375 89.71404076 -372.4375 86.5 C-373.87585205 86.95439453 -373.87585205 86.95439453 -375.34326172 87.41796875 C-378.89444301 88.53900859 -382.44679287 89.65630434 -385.99951172 90.77246094 C-387.5382459 91.25646219 -389.07665941 91.7414841 -390.61474609 92.22753906 C-392.82306141 92.92520154 -395.03249638 93.61920929 -397.2421875 94.3125 C-397.93182587 94.53123779 -398.62146423 94.74997559 -399.33200073 94.9753418 C-404.20975659 96.5 -404.20975659 96.5 -406.4375 96.5 C-406.66969238 97.57169434 -406.90188477 98.64338867 -407.14111328 99.74755859 C-409.47382803 110.42962161 -411.95841298 121.06438869 -414.68212891 131.65380859 C-415.10645001 133.31723936 -415.52297951 134.98267498 -415.93212891 136.64990234 C-420.58714119 155.59694128 -420.58714119 155.59694128 -428.6328125 162.33984375 C-429.26960938 162.70207031 -429.90640625 163.06429687 -430.5625 163.4375 C-431.52542969 164.00791016 -431.52542969 164.00791016 -432.5078125 164.58984375 C-438.66412704 167.49353057 -446.21471054 167.49926746 -452.625 165.375 C-459.19440378 162.5216226 -463.86097562 158.12786795 -466.71484375 151.54296875 C-471.90556702 136.86865379 -463.09707953 116.66656435 -459.44946289 102.30932617 C-458.49658417 98.54902023 -457.5577293 94.78537906 -456.61914062 91.02148438 C-456.00866796 88.60915835 -455.39736889 86.19704128 -454.78515625 83.78515625 C-454.50897964 82.67044449 -454.23280304 81.55573273 -453.94825745 80.40724182 C-451.37320906 70.38426375 -448.40542354 62.31248535 -439.4375 56.5 C-433.32315497 53.21633337 -426.92282364 50.5138545 -420.5625 47.75 C-418.75676678 46.95450859 -416.95143073 46.15811502 -415.14648438 45.36083984 C-410.71797754 43.4093881 -406.2816377 41.47649478 -401.84289551 39.54846191 C-399.02004904 38.3180418 -396.2046162 37.07143154 -393.3898468 35.82267761 C-360.35382641 21.18573737 -330.98091869 23.06521341 -295.73168945 26.16479492 C-292.46873431 26.4483154 -289.20473633 26.71861223 -285.94065666 26.98882866 C-282.75906313 27.25332828 -279.57803783 27.5241976 -276.39715958 27.79715347 C-274.8975426 27.92543414 -273.39779633 28.05221374 -271.89791489 28.17736435 C-252.82956558 29.78055674 -243.3175109 34.77851516 -229.171875 47.234375 C-224.36861569 51.45750678 -219.42282589 55.49364075 -214.4375 59.5 C-213.63570312 60.28246094 -212.83390625 61.06492188 -212.0078125 61.87109375 C-210.73550781 62.67740234 -210.73550781 62.67740234 -209.4375 63.5 C-205.33356097 62.44938027 -201.78720069 60.75046714 -198.09375 58.70703125 C-197.10157471 58.16199951 -196.10939941 57.61696777 -195.0871582 57.05541992 C-194.047771 56.48025635 -193.00838379 55.90509277 -191.9375 55.3125 C-189.77520982 54.13715533 -187.61245188 52.96267076 -185.44921875 51.7890625 C-182.016034 49.91932185 -178.59920077 48.02891799 -175.20703125 46.0859375 C-167.53306344 41.87175857 -161.20360533 39.92457671 -152.4375 41.5 C-144.9660766 43.77346217 -140.27976318 47.7558877 -136.4375 54.5 C-133.47191392 60.56597154 -133.25555068 67.82223806 -135.3125 74.22265625 C-140.09508286 84.65309189 -148.57189568 88.94138958 -158.4375 94.0625 C-160.76027553 95.28816697 -163.08186636 96.51608139 -165.40234375 97.74609375 C-166.28103371 98.21070007 -166.28103371 98.21070007 -167.17747498 98.68469238 C-174.13655981 102.37714811 -180.96776047 106.29346416 -187.78710938 110.23657227 C-198.21184446 116.21123418 -206.1010794 120.07215004 -218.4375 118.5 C-222.1596279 117.36915504 -225.16316525 115.57945729 -228.4375 113.5 C-229.72179898 112.71604179 -231.00703232 111.93361314 -232.29296875 111.15234375 C-235.75914905 109.03020083 -239.19022908 106.85775928 -242.61083984 104.66308594 C-244.19371204 103.65522665 -245.79276998 102.67287354 -247.39453125 101.6953125 C-248.19246094 101.19773437 -248.99039063 100.70015625 -249.8125 100.1875 C-250.48023438 99.77886719 -251.14796875 99.37023437 -251.8359375 98.94921875 C-253.9547113 97.03198685 -254.6057132 95.2075509 -255.4375 92.5 C-255.28420385 89.35742887 -254.63704487 87.79532641 -252.875 85.1875 C-249.49551627 82.84785742 -246.38493526 82.96224768 -242.4375 83.5 C-239.05419922 85.06054688 -239.05419922 85.06054688 -235.7421875 87.21875 C-235.14624786 87.59608276 -234.55030823 87.97341553 -233.93630981 88.36218262 C-232.05036116 89.55809729 -230.18056084 90.7763646 -228.3125 92 C-226.4364152 93.22193952 -224.55750987 94.43788165 -222.66726685 95.63781738 C-220.95660034 96.72445386 -219.25890027 97.83142426 -217.56201172 98.93945312 C-214.1250606 100.65604881 -212.22225054 100.95323435 -208.4375 100.5 C-206.36041847 99.84586426 -206.36041847 99.84586426 -204.50390625 98.76953125 C-203.78396484 98.38506836 -203.06402344 98.00060547 -202.32226562 97.60449219 C-201.55591797 97.17813477 -200.78957031 96.75177734 -200 96.3125 C-199.18595703 95.87196289 -198.37191406 95.43142578 -197.53320312 94.97753906 C-188.92000947 90.28798939 -180.39309236 85.43770389 -171.875 80.578125 C-168.0498739 78.40703235 -164.22019191 76.24475827 -160.375 74.109375 C-159.47652344 73.60889648 -158.57804687 73.10841797 -157.65234375 72.59277344 C-155.4375 71.5 -155.4375 71.5 -153.4375 71.5 C-152.32298885 66.15154398 -152.32298885 66.15154398 -153.4375 61 C-155.76512802 59.25427899 -157.37536318 59.01876132 -160.25634766 59.08935547 C-165.13508875 60.00787377 -169.36498004 62.87464966 -173.625 65.3125 C-174.67421631 65.89475342 -175.72343262 66.47700684 -176.80444336 67.0769043 C-181.96486996 69.94553906 -187.09046252 72.87332961 -192.2109375 75.8125 C-193.10530518 76.31934326 -193.99967285 76.82618652 -194.92114258 77.34838867 C-196.59833694 78.30059303 -198.2679881 79.26625149 -199.9284668 80.24731445 C-204.56888947 82.88381724 -207.95835069 84.39241234 -213.4375 83.5 C-216.0703125 81.91796875 -216.0703125 81.91796875 -218.5625 79.6875 C-219.50351562 78.86636719 -220.44453125 78.04523438 -221.4140625 77.19921875 C-221.90551758 76.75884277 -222.39697266 76.3184668 -222.90332031 75.86474609 C-225.53581422 73.52298274 -228.24223386 71.26885805 -230.9375 69 C-232.03530124 68.06918139 -233.13295838 67.1381928 -234.23046875 66.20703125 C-248.41731449 52.96766323 -248.41731449 52.96766323 -265.99072266 46.83569336 C-266.98452942 46.74769218 -266.98452942 46.74769218 -267.99841309 46.65791321 C-270.19912312 46.464395 -272.4002754 46.27667701 -274.6015625 46.08984375 C-276.15164357 45.95677161 -277.70172289 45.82367901 -279.25180054 45.69056702 C-282.51837981 45.41121327 -285.78522917 45.13526881 -289.05224609 44.86108398 C-292.35362945 44.58345379 -295.65433523 44.29928164 -298.95458984 44.00854492 C-336.31185059 39.30850423 -336.31185059 39.30850423 -372.4375 46.5 C-373.15623291 46.7988208 -373.87496582 47.0976416 -374.61547852 47.40551758 C-380.1931018 49.73871505 -385.69296701 52.2286694 -391.1875 54.75 C-392.8672319 55.51333074 -394.54732924 56.27585782 -396.2277832 57.03759766 C-399.49759739 58.52076196 -402.76533499 60.00836421 -406.03173828 61.49902344 C-409.75794195 63.19617754 -413.49708938 64.8615131 -417.24609375 66.5078125 C-418.18163086 66.91999023 -419.11716797 67.33216797 -420.08105469 67.75683594 C-421.71640649 68.4756374 -423.35363548 69.19019118 -424.99316406 69.89941406 C-429.77657266 71.97016071 -429.77657266 71.97016071 -433.4375 75.5 C-434.33266524 78.10065556 -435.08212871 80.61685663 -435.76171875 83.2734375 C-435.97181076 84.0625351 -436.18190277 84.85163269 -436.39836121 85.66464233 C-437.08910446 88.27366644 -437.76386245 90.88651116 -438.4375 93.5 C-438.91457949 95.32331987 -439.39196002 97.14656101 -439.86962891 98.96972656 C-441.10618061 103.71353873 -442.31614512 108.46366753 -443.5144043 113.21728516 C-444.00959784 115.1747213 -444.50902873 117.13108981 -445.01245117 119.08642578 C-445.75322211 121.96421009 -446.48148258 124.84490769 -447.20703125 127.7265625 C-447.5444207 129.02359604 -447.5444207 129.02359604 -447.8886261 130.34683228 C-449.1777376 135.54023636 -449.80433753 140.14424645 -449.4375 145.5 C-447.95619332 147.73608998 -447.95619332 147.73608998 -445.4375 148.5 C-442.34101124 148.66448881 -442.34101124 148.66448881 -439.4375 147.5 C-437.05875509 144.16492049 -435.84611756 141.00643452 -434.859375 137.0546875 C-434.58899414 135.99008301 -434.31861328 134.92547852 -434.04003906 133.82861328 C-433.75870117 132.6889209 -433.47736328 131.54922852 -433.1875 130.375 C-432.73842285 128.60552002 -432.73842285 128.60552002 -432.28027344 126.80029297 C-431.32498549 123.03542249 -430.38000336 119.26808995 -429.4375 115.5 C-428.19668934 110.53928962 -426.94538811 105.58140411 -425.6875 100.625 C-425.40616211 99.48530762 -425.12482422 98.34561523 -424.83496094 97.17138672 C-424.56458008 96.10678223 -424.29419922 95.04217773 -424.015625 93.9453125 C-423.78262695 93.01219238 -423.54962891 92.07907227 -423.30957031 91.11767578 C-421.96331043 87.07663477 -420.57697912 84.31983337 -417.07687378 81.80157471 C-414.47592476 80.5189487 -411.97248494 79.54499938 -409.20751953 78.67480469 C-408.18941193 78.35147156 -407.17130432 78.02813843 -406.12234497 77.69500732 C-405.03267426 77.35737366 -403.94300354 77.01973999 -402.8203125 76.671875 C-401.68979462 76.31861145 -400.55927673 75.9653479 -399.39450073 75.60137939 C-397.00678071 74.8582989 -394.61792519 74.11885857 -392.22802734 73.3828125 C-388.57806222 72.25480943 -384.93561157 71.10452095 -381.29296875 69.953125 C-378.96917733 69.23299459 -376.64497151 68.51419977 -374.3203125 67.796875 C-372.69187912 67.27827911 -372.69187912 67.27827911 -371.0305481 66.74920654 C-365.3839756 65.03648894 -361.1969416 63.94445182 -355.4375 65.5 C-353.5625 66.625 -353.5625 66.625 -352.4375 68.5 C-351.20112717 74.25441733 -351.73305038 78.9188939 -352.79272461 84.59716797 C-353.02659126 85.92300903 -353.02659126 85.92300903 -353.2651825 87.27563477 C-353.6035881 89.18563547 -353.94700189 91.09475428 -354.29490471 93.00304794 C-354.84652813 96.02885314 -355.38501207 99.05674545 -355.92030334 102.08547974 C-356.86649257 107.42654057 -357.82425676 112.76544892 -358.78582764 118.10375977 C-360.32322443 126.63979195 -361.85083089 135.17750715 -363.36364937 143.71792984 C-363.89320396 146.69087625 -364.43245798 149.66195079 -364.97239685 152.63302612 C-365.29963926 154.46995796 -365.62648779 156.30696003 -365.95288086 158.14404297 C-366.10406372 158.96095612 -366.25524658 159.77786926 -366.41101074 160.61953735 C-368.15684684 170.58042289 -368.32178719 180.03646391 -362.9609375 188.95703125 C-357.73693156 196.14898463 -351.89306379 199.96422039 -343.4375 202.5 C-341.42081893 202.76023855 -339.39321255 202.9437333 -337.36328125 203.0625 C-336.15873291 203.13605713 -334.95418457 203.20961426 -333.71313477 203.28540039 C-332.40530029 203.35621826 -331.09746582 203.42703613 -329.75 203.5 C-328.36447561 203.58084856 -326.97897814 203.66215966 -325.59350586 203.74389648 C-311.36896922 204.56543428 -297.1327465 205.19475418 -282.89770508 205.80273438 C-282.00456604 205.8419249 -281.111427 205.88111542 -280.19122314 205.92149353 C-278.52617079 205.99446423 -276.86101405 206.06511106 -275.19573975 206.13282776 C-260.67372986 206.77635325 -260.67372986 206.77635325 -256.875 209 C-254.69417409 212.79274071 -254.90652771 216.27874745 -255.4375 220.5 C-256.80278141 225.49672273 -258.59222225 230.3188201 -260.3984375 235.16796875 C-260.91059154 236.57516258 -261.42144373 237.98283084 -261.93106079 239.39094543 C-263.26904165 243.07741145 -264.62397925 246.75740968 -265.98284912 250.43621826 C-267.36051228 254.17454723 -268.72279146 257.9184678 -270.0859375 261.66210938 C-271.62040362 265.87432387 -273.15634832 270.08593887 -274.70419312 274.29325867 C-274.93989517 274.93443634 -275.17559723 275.57561401 -275.41844177 276.23622131 C-276.05284376 277.96086349 -276.68829179 279.68512079 -277.32382202 281.40934753 C-280.31805338 289.71886672 -281.94120394 296.27076847 -278.40625 304.6171875 C-275.26146407 310.72923112 -270.84925051 314.33686618 -264.4375 316.5 C-259.59981448 317.30435869 -254.87197936 317.67410226 -249.97265625 317.81640625 C-248.95539711 317.8475779 -248.95539711 317.8475779 -247.91758728 317.87937927 C-245.77848169 317.94409309 -243.63926704 318.0033909 -241.5 318.0625 C-240.03840076 318.10575984 -238.57681203 318.14937634 -237.11523438 318.19335938 C-233.5561016 318.29969251 -229.99685003 318.4011733 -226.4375 318.5 C-226.13803467 317.5514917 -225.83856934 316.6029834 -225.5300293 315.62573242 C-223.55125123 309.96443732 -219.34167442 306.70468177 -214.375 303.5625 C-208.77418306 301.52238342 -202.26975916 301.85408205 -196.4375 302.5 C-195.23202249 303.11846548 -194.03199292 303.74762776 -192.83666992 304.38549805 C-190.09678805 305.43163583 -188.91237616 305.6641398 -186.1108551 304.69580078 C-183.44615377 303.17124996 -180.95989061 301.50299177 -178.453125 299.73046875 C-177.51627869 299.10151199 -176.57943237 298.47255524 -175.61419678 297.82453918 C-172.6196969 295.80524949 -169.65401031 293.74763013 -166.6875 291.6875 C-164.70751751 290.34176607 -162.72576173 288.99863728 -160.7421875 287.65820312 C-156.9531119 285.09381004 -153.18101924 282.50708011 -149.41992188 279.90185547 C-146.45623591 277.85723682 -143.47943489 275.87179761 -140.40820312 273.99267578 C-139.31958984 273.32091309 -138.23097656 272.64915039 -137.109375 271.95703125 C-136.20799805 271.42698486 -135.30662109 270.89693848 -134.37792969 270.35083008 C-131.66669048 267.76478272 -131.66985799 265.66397952 -131.4375 262 C-131.44910156 260.88367188 -131.46070313 259.76734375 -131.47265625 258.6171875 C-131.41002747 253.06410273 -129.32750908 249.49281292 -125.5703125 245.53125 C-119.28126232 239.74057738 -114.88473788 238.21365295 -106.4375 238.5 C-106.34545288 237.86434616 -106.25340576 237.22869232 -106.15856934 236.57377625 C-105.15860996 232.31114681 -103.52998251 228.37698542 -101.90039062 224.31958008 C-101.53322559 223.395614 -101.16606056 222.47164793 -100.78776932 221.51968288 C-99.56057231 218.43463111 -98.32721833 215.35208044 -97.09375 212.26953125 C-96.21990262 210.07717924 -95.34639513 207.88469173 -94.47320557 205.69207764 C-92.60594163 201.00584929 -90.73584591 196.32076422 -88.86364746 191.63650513 C-86.42462433 185.53374073 -83.99079014 179.42892413 -81.55875778 173.32337093 C-72.24124894 149.93375689 -62.8925045 126.55739872 -53.409729 103.23418617 C-52.22133737 100.31043219 -51.03446764 97.38606539 -49.84814453 94.46147156 C-49.08693349 92.58522771 -48.32570333 90.70899163 -47.56445312 88.83276367 C-47.19726669 87.92767657 -46.83008026 87.02258947 -46.45176697 86.09007549 C-44.29488672 80.77749448 -42.12555941 75.47020291 -39.94707108 70.16644859 C-38.61380593 66.91358198 -37.29086435 63.6565906 -35.97063446 60.39841461 C-35.36321007 58.90608378 -34.75121905 57.41560212 -34.13428497 55.92717743 C-33.30127179 53.91642072 -32.48426339 51.89987122 -31.67089844 49.88110352 C-30.98275055 48.2013015 -30.98275055 48.2013015 -30.28070068 46.48756409 C-29.36946531 43.25894471 -29.38762305 41.65338132 -30.4375 38.5 C-31.73322383 36.47543152 -33.0648318 34.47321053 -34.4375 32.5 C-36.59114435 26.03906695 -36.75069976 17.35811884 -33.9375 11.0625 C-26.91173661 -0.56376327 -12.74096817 -5.64599766 0 0 Z M-16.8125 17.125 C-18.92456506 20.21186432 -19.04945145 21.8282913 -18.4375 25.5 C-16.9375 28 -16.9375 28 -14.4375 29.5 C-10.7657913 30.11195145 -9.14936432 29.98706506 -6.0625 27.875 C-3.95043494 24.78813568 -3.82554855 23.1717087 -4.4375 19.5 C-5.9375 17 -5.9375 17 -8.4375 15.5 C-12.1092087 14.88804855 -13.72563568 15.01293494 -16.8125 17.125 Z M-112.8125 257.125 C-114.92456506 260.21186432 -115.04945145 261.8282913 -114.4375 265.5 C-112.9375 268 -112.9375 268 -110.4375 269.5 C-106.7657913 270.11195145 -105.14936432 269.98706506 -102.0625 267.875 C-99.95043494 264.78813568 -99.82554855 263.1717087 -100.4375 259.5 C-101.9375 257 -101.9375 257 -104.4375 255.5 C-108.1092087 254.88804855 -109.72563568 255.01293494 -112.8125 257.125 Z M-208.8125 321.125 C-210.92456506 324.21186432 -211.04945145 325.8282913 -210.4375 329.5 C-208.9375 332 -208.9375 332 -206.4375 333.5 C-202.7657913 334.11195145 -201.14936432 333.98706506 -198.0625 331.875 C-195.95043494 328.78813568 -195.82554855 327.1717087 -196.4375 323.5 C-197.9375 321 -197.9375 321 -200.4375 319.5 C-204.1092087 318.88804855 -205.72563568 319.01293494 -208.8125 321.125 Z " fill="#000000" transform="translate(483.4375,97.5)"/>
<path d="M0 0 C2.16796875 0.3984375 2.16796875 0.3984375 4.79296875 2.2734375 C8.80312625 11.38743181 3.04222481 23.38848325 0.29296875 32.421875 C-0.19727422 34.05685202 -0.68668067 35.69208008 -1.17529297 37.32754517 C-2.455807 41.60596704 -3.74702844 45.88108026 -5.04077148 50.15551758 C-6.35750756 54.51200043 -7.66492626 58.8712756 -8.97265625 63.23046875 C-10.44183388 68.12774587 -11.91175982 73.02477177 -13.39013672 77.91928101 C-13.61417175 78.66195221 -13.83820679 79.40462341 -14.06903076 80.1697998 C-14.48610366 81.55200171 -14.90389884 82.93398596 -15.3225708 84.31570435 C-16.23087746 87.32813446 -17.10878499 90.3357465 -17.83203125 93.3984375 C-16.89222412 93.55924805 -15.95241699 93.72005859 -14.98413086 93.88574219 C-14.35684082 93.99311203 -13.72955078 94.10048187 -13.08325195 94.21110535 C-11.66131247 94.4544597 -10.23935555 94.69771221 -8.81738281 94.94087219 C-4.85953258 95.61801463 -0.90215757 96.29777082 3.05444336 96.98217773 C10.11733934 98.2022334 17.1783486 99.41503907 24.26171875 100.51171875 C25.28644287 100.67510742 26.31116699 100.83849609 27.36694336 101.00683594 C29.20422926 101.29819511 31.04352607 101.57729151 32.88500977 101.84082031 C42.54468556 103.40323499 51.12780526 107.54468802 57.16796875 115.3984375 C62.26180016 122.90026194 64.24048408 131.35260465 62.86541748 140.3860321 C61.68821592 146.18728431 59.66672466 151.01164774 56.90625 156.2265625 C56.48347778 157.04557037 56.06070557 157.86457825 55.62512207 158.70840454 C54.25332707 161.36027678 52.86710098 164.00429807 51.48046875 166.6484375 C50.52402036 168.49054831 49.5685435 170.33316385 48.61401367 172.17626953 C46.70252977 175.86353078 44.7855171 179.54782497 42.86328125 183.22949219 C40.49284761 187.77101043 38.13795655 192.32029932 35.79296875 196.875 C32.79421567 202.6980641 29.782746 208.51436697 26.76220703 214.32617188 C25.21339164 217.31090278 23.67260368 220.29966862 22.1328125 223.2890625 C21.22822455 225.03404082 20.32330224 226.77884587 19.41796875 228.5234375 C18.82592651 229.67948486 18.82592651 229.67948486 18.22192383 230.85888672 C16.50747841 234.14481205 14.97338435 236.95622505 12.16796875 239.3984375 C9.10026094 240.07638398 6.2488327 239.98791688 3.16796875 239.3984375 C0.60546875 237.2734375 0.60546875 237.2734375 -0.83203125 234.3984375 C-1.23339634 229.77475954 -0.4444931 226.89262827 1.66015625 222.79296875 C2.47226563 221.19098633 2.47226563 221.19098633 3.30078125 219.55664062 C3.87570313 218.45255859 4.450625 217.34847656 5.04296875 216.2109375 C5.84734375 214.63022461 5.84734375 214.63022461 6.66796875 213.01757812 C10.02981443 206.43852431 13.47878286 199.90576732 16.92578125 193.37109375 C21.9450091 183.85546677 26.88003401 174.29778774 31.78466797 164.72265625 C33.19261782 161.97534006 34.60409443 159.22985287 36.015625 156.484375 C36.92078615 154.7188593 37.8257421 152.95323839 38.73046875 151.1875 C39.35695313 149.97037827 39.35695313 149.97037827 39.99609375 148.72866821 C44.82183216 139.55622538 44.82183216 139.55622538 44.16796875 129.3984375 C41.61922984 124.39535741 39.25260505 122.58816913 34.16796875 120.3984375 C30.90497503 119.60218426 30.90497503 119.60218426 27.41577148 119.12744141 C26.76943756 119.02774551 26.12310364 118.92804962 25.45718384 118.82533264 C24.06487128 118.61156551 22.6718733 118.40222397 21.27828789 118.19691849 C19.06928278 117.87022611 16.86293695 117.52913457 14.65675354 117.18392944 C8.38800874 116.20515871 2.11608057 115.24825772 -4.15893555 114.31054688 C-8.00715188 113.73445558 -11.85184407 113.13838714 -15.69508171 112.53001022 C-17.15507835 112.3030547 -18.61629421 112.08379843 -20.07864571 111.87254715 C-22.12555606 111.57647495 -24.1670576 111.25518378 -26.20922852 110.92822266 C-27.37027603 110.75296051 -28.53132355 110.57769836 -29.72755432 110.39712524 C-33.7020374 109.11856282 -35.39448326 107.79217298 -37.83203125 104.3984375 C-38.5132505 98.5928394 -37.39156396 93.77416321 -35.69238281 88.24511719 C-35.46472229 87.47318527 -35.23706177 86.70125336 -35.00250244 85.90592957 C-34.25295939 83.37416103 -33.48803276 80.84733499 -32.72265625 78.3203125 C-32.19325576 76.54472116 -31.66476758 74.76885758 -31.137146 72.99273682 C-29.74776436 68.32554583 -28.34500855 63.66247608 -26.93969727 59.00006104 C-25.80266267 55.21957475 -24.67516078 51.43627916 -23.54819107 47.65278244 C-22.19291255 43.10349181 -20.83340431 38.55546976 -19.47265625 34.0078125 C-19.21756538 33.1550045 -18.96247452 32.3021965 -18.69965363 31.42354584 C-17.09746271 26.07549137 -15.47470673 20.73418747 -13.83203125 15.3984375 C-13.45784058 14.17225708 -13.0836499 12.94607666 -12.69812012 11.68273926 C-12.3578479 10.60697632 -12.01757568 9.53121338 -11.66699219 8.42285156 C-11.3814447 7.51182678 -11.09589722 6.600802 -10.80169678 5.66217041 C-8.48803667 0.26081459 -5.50105781 -0.23332382 0 0 Z " fill="#000000" transform="translate(218.83203125,160.6015625)"/>
<path d="M0 0 C0.66 -0.0103125 1.32 -0.020625 2 -0.03125 C5.14987031 0.8054343 6.0761906 1.8166538 8 4.5 C8.61987176 8.18639673 8.53889549 11.85361766 8.50793457 15.58398438 C8.51729451 17.29996952 8.51729451 17.29996952 8.52684355 19.05062103 C8.54005184 22.22651016 8.53527972 25.40178936 8.52289867 28.57766342 C8.5138606 32.00241113 8.52781168 35.42707542 8.53881836 38.85180664 C8.55662157 45.56101802 8.55275566 52.27005059 8.5411678 58.97926903 C8.5321408 64.4310999 8.53090628 69.8828806 8.53526306 75.3347168 C8.53587599 76.11012109 8.53648893 76.88552539 8.53712043 77.68442678 C8.53839931 79.25955774 8.53969616 80.83468868 8.5410108 82.4098196 C8.55242187 97.1860498 8.53929465 111.9621808 8.51780933 126.73839474 C8.49993785 139.42200035 8.50304181 152.10545953 8.52148438 164.7890625 C8.54288181 179.51176617 8.55132318 194.23438286 8.53903532 208.95709991 C8.5377611 210.52649433 8.53650362 212.09588876 8.53526306 213.6652832 C8.53464596 214.43749128 8.53402886 215.20969935 8.53339306 216.00530767 C8.52993676 221.45172046 8.53577449 226.89807816 8.54518127 232.34448242 C8.55639015 238.9802549 8.55338481 245.61583808 8.5320583 252.25158882 C8.52153269 255.63846381 8.51745129 259.02502297 8.53065491 262.41189575 C8.54152929 266.08025424 8.52794354 269.74771489 8.50793457 273.41601562 C8.51685746 274.4911013 8.52578034 275.56618698 8.53497362 276.67385101 C8.45854694 283.86041471 8.45854694 283.86041471 6.09325409 287.1595459 C3.83917475 288.60298744 2.65675995 289.04151187 0 289 C-0.66 289.0103125 -1.32 289.020625 -2 289.03125 C-5.14987031 288.1945657 -6.0761906 287.1833462 -8 284.5 C-8.61987176 280.81360327 -8.53889549 277.14638234 -8.50793457 273.41601562 C-8.51417453 272.27202553 -8.5204145 271.12803543 -8.52684355 269.94937897 C-8.54005184 266.77348984 -8.53527972 263.59821064 -8.52289867 260.42233658 C-8.5138606 256.99758887 -8.52781168 253.57292458 -8.53881836 250.14819336 C-8.55662157 243.43898198 -8.55275566 236.72994941 -8.5411678 230.02073097 C-8.5321408 224.5689001 -8.53090628 219.1171194 -8.53526306 213.6652832 C-8.53587599 212.88987891 -8.53648893 212.11447461 -8.53712043 211.31557322 C-8.53839931 209.74044226 -8.53969616 208.16531132 -8.5410108 206.5901804 C-8.55242187 191.8139502 -8.53929465 177.0378192 -8.51780933 162.26160526 C-8.49993785 149.57799965 -8.50304181 136.89454047 -8.52148438 124.2109375 C-8.54288181 109.48823383 -8.55132318 94.76561714 -8.53903532 80.04290009 C-8.5377611 78.47350567 -8.53650362 76.90411124 -8.53526306 75.3347168 C-8.53464596 74.56250872 -8.53402886 73.79030065 -8.53339306 72.99469233 C-8.52993676 67.54827954 -8.53577449 62.10192184 -8.54518127 56.65551758 C-8.55639015 50.0197451 -8.55338481 43.38416192 -8.5320583 36.74841118 C-8.52153269 33.36153619 -8.51745129 29.97497703 -8.53065491 26.58810425 C-8.54152929 22.91974576 -8.52794354 19.25228511 -8.50793457 15.58398438 C-8.51685746 14.5088987 -8.52578034 13.43381302 -8.53497362 12.32614899 C-8.45854694 5.13958529 -8.45854694 5.13958529 -6.09325409 1.8404541 C-3.83917475 0.39701256 -2.65675995 -0.04151187 0 0 Z " fill="#000000" transform="translate(472,207.5)"/>
<path d="M0 0 C10.23906578 7.73254248 18.72711365 17.59665562 20.6875 30.6875 C22.11678455 48.13329299 19.50517553 61.04058775 8.03125 74.65234375 C0.02533375 83.28136197 -10.26078398 88.35475631 -21.96875 89.00390625 C-38.65548452 89.56319388 -50.64291019 85.89777041 -63.0625 74.375 C-73.05541038 63.81645319 -75.82689781 52.26922077 -75.73217773 38.15722656 C-75.32139743 24.03483761 -69.475381 12.95884274 -59.25 3.28125 C-42.59283172 -10.42061423 -18.05009418 -11.9794347 0 0 Z M-52.3125 20.6875 C-58.26934175 29.45976447 -59.12110965 37.15279681 -58.3125 47.6875 C-56.12872185 56.93424063 -51.15351899 63.11888233 -43.1875 68.0625 C-35.32708088 72.64162267 -26.26387226 73.09301976 -17.41796875 71.00390625 C-7.53444214 67.34502774 -1.9168373 61.05068257 2.6875 51.6875 C5.44060059 43.61173827 4.59287175 33.56751361 1.0078125 25.93359375 C-3.5144908 18.2403263 -9.61404341 12.88741416 -18.16796875 10.078125 C-31.41011336 7.6660768 -43.3234631 10.45997357 -52.3125 20.6875 Z " fill="#000000" transform="translate(219.3125,23.3125)"/>
<path d="M0 0 C0.66 -0.0103125 1.32 -0.020625 2 -0.03125 C4.94359444 0.75064227 6.09600693 2.14756625 8 4.5 C8.50336456 7.3548584 8.50336456 7.3548584 8.50793457 10.72460938 C8.52485352 12.64261353 8.52485352 12.64261353 8.54211426 14.59936523 C8.53433723 16.01416242 8.52614457 17.42895737 8.51757812 18.84375 C8.52299892 20.33537479 8.53012134 21.82699423 8.53881836 23.31860352 C8.55706004 27.36822628 8.5499809 31.41744161 8.53730202 35.46707153 C8.52717864 39.70397036 8.53656585 43.94083418 8.54284668 48.17773438 C8.55012503 55.2930325 8.54053052 62.40816458 8.52148438 69.5234375 C8.49971519 77.751028 8.50676643 85.97822203 8.52879 94.20580292 C8.5469387 101.26834254 8.54950494 108.33076277 8.53903532 115.39331818 C8.53279744 119.61213175 8.53197274 123.83075893 8.54518127 128.04956055 C8.55673156 132.01580373 8.54872962 135.98153549 8.52560425 139.94772339 C8.52031268 141.40378978 8.52183866 142.85989917 8.53065491 144.31594849 C8.54157434 146.30241362 8.525457 148.28897276 8.50793457 150.27539062 C8.50642647 151.38740845 8.50491837 152.49942627 8.50336456 153.6451416 C7.88502429 157.15209072 6.76483129 158.32833868 4 160.5 C2 161.03125 2 161.03125 0 161 C-0.66 161.0103125 -1.32 161.020625 -2 161.03125 C-4.94359444 160.24935773 -6.09600693 158.85243375 -8 156.5 C-8.50336456 153.6451416 -8.50336456 153.6451416 -8.50793457 150.27539062 C-8.51921387 148.99672119 -8.53049316 147.71805176 -8.54211426 146.40063477 C-8.53433723 144.98583758 -8.52614457 143.57104263 -8.51757812 142.15625 C-8.52299892 140.66462521 -8.53012134 139.17300577 -8.53881836 137.68139648 C-8.55706004 133.63177372 -8.5499809 129.58255839 -8.53730202 125.53292847 C-8.52717864 121.29602964 -8.53656585 117.05916582 -8.54284668 112.82226562 C-8.55012503 105.7069675 -8.54053052 98.59183542 -8.52148438 91.4765625 C-8.49971519 83.248972 -8.50676643 75.02177797 -8.52879 66.79419708 C-8.5469387 59.73165746 -8.54950494 52.66923723 -8.53903532 45.60668182 C-8.53279744 41.38786825 -8.53197274 37.16924107 -8.54518127 32.95043945 C-8.55673156 28.98419627 -8.54872962 25.01846451 -8.52560425 21.05227661 C-8.52031268 19.59621022 -8.52183866 18.14010083 -8.53065491 16.68405151 C-8.54157434 14.69758638 -8.525457 12.71102724 -8.50793457 10.72460938 C-8.50642647 9.61259155 -8.50491837 8.50057373 -8.50336456 7.3548584 C-7.66797686 2.61691344 -4.85845929 -0.07591343 0 0 Z " fill="#000000" transform="translate(424,335.5)"/>
<path d="M0 0 C0.66 -0.0103125 1.32 -0.020625 2 -0.03125 C5.03119371 0.77391083 6.0938408 2.00546283 8 4.5 C8.39455787 7.4478527 8.54732315 10.02177283 8.51757812 12.96875 C8.5245874 13.82122314 8.53159668 14.67369629 8.53881836 15.55200195 C8.55641568 18.3683332 8.5447696 21.18365864 8.53125 24 C8.53394442 25.95768425 8.53782642 27.9153672 8.54284668 29.87304688 C8.54874408 33.97539007 8.54017093 38.07738482 8.52148438 42.1796875 C8.49869475 47.43920628 8.51181653 52.69790864 8.53577423 57.95739746 C8.55022563 61.9997371 8.54562923 66.04188305 8.53526306 70.08422852 C8.53259396 72.02351986 8.53587197 73.96282877 8.54518127 75.90209961 C8.55533602 78.6122905 8.53986128 81.32115775 8.51757812 84.03125 C8.52567505 84.83344971 8.53377197 85.63564941 8.54211426 86.4621582 C8.48724701 90.06262563 8.31076947 92.0933047 6.09265137 94.99609375 C3.82522778 96.62560192 2.76035207 97.0431305 0 97 C-0.66 97.0103125 -1.32 97.020625 -2 97.03125 C-5.03119371 96.22608917 -6.0938408 94.99453717 -8 92.5 C-8.39455787 89.5521473 -8.54732315 86.97822717 -8.51757812 84.03125 C-8.5245874 83.17877686 -8.53159668 82.32630371 -8.53881836 81.44799805 C-8.55641568 78.6316668 -8.5447696 75.81634136 -8.53125 73 C-8.53394442 71.04231575 -8.53782642 69.0846328 -8.54284668 67.12695312 C-8.54874408 63.02460993 -8.54017093 58.92261518 -8.52148438 54.8203125 C-8.49869475 49.56079372 -8.51181653 44.30209136 -8.53577423 39.04260254 C-8.55022563 35.0002629 -8.54562923 30.95811695 -8.53526306 26.91577148 C-8.53259396 24.97648014 -8.53587197 23.03717123 -8.54518127 21.09790039 C-8.55533602 18.3877095 -8.53986128 15.67884225 -8.51757812 12.96875 C-8.52567505 12.16655029 -8.53377197 11.36435059 -8.54211426 10.5378418 C-8.48724701 6.93737437 -8.31076947 4.9066953 -6.09265137 2.00390625 C-3.82522778 0.37439808 -2.76035207 -0.0431305 0 0 Z " fill="#000000" transform="translate(376,399.5)"/>
<path d="M0 0 C0.66 -0.0103125 1.32 -0.020625 2 -0.03125 C4.9192339 0.7441715 6.09362068 2.18867521 8 4.5 C8.50793457 7.08007812 8.50793457 7.08007812 8.51757812 10.03125 C8.53018677 11.13919922 8.54279541 12.24714844 8.55578613 13.38867188 C8.54768921 14.58041016 8.53959229 15.77214844 8.53125 17 C8.5350769 18.22783203 8.53890381 19.45566406 8.54284668 20.72070312 C8.54556842 23.31641459 8.53818911 25.91215336 8.52148438 28.5078125 C8.50008075 32.48499599 8.52127963 36.46037282 8.546875 40.4375 C8.54423177 42.95833733 8.53910691 45.47917353 8.53125 48 C8.53934692 49.19173828 8.54744385 50.38347656 8.55578613 51.61132812 C8.54317749 52.71927734 8.53056885 53.82722656 8.51757812 54.96875 C8.51280457 56.42958008 8.51280457 56.42958008 8.50793457 57.91992188 C7.85796634 61.22146681 6.58462403 62.41577655 4 64.5 C2 65.03125 2 65.03125 0 65 C-0.66 65.0103125 -1.32 65.020625 -2 65.03125 C-4.9192339 64.2558285 -6.09362068 62.81132479 -8 60.5 C-8.50793457 57.91992188 -8.50793457 57.91992188 -8.51757812 54.96875 C-8.53018677 53.86080078 -8.54279541 52.75285156 -8.55578613 51.61132812 C-8.54768921 50.41958984 -8.53959229 49.22785156 -8.53125 48 C-8.5350769 46.77216797 -8.53890381 45.54433594 -8.54284668 44.27929688 C-8.54556842 41.68358541 -8.53818911 39.08784664 -8.52148438 36.4921875 C-8.50008075 32.51500401 -8.52127963 28.53962718 -8.546875 24.5625 C-8.54423177 22.04166267 -8.53910691 19.52082647 -8.53125 17 C-8.53934692 15.80826172 -8.54744385 14.61652344 -8.55578613 13.38867188 C-8.54317749 12.28072266 -8.53056885 11.17277344 -8.51757812 10.03125 C-8.51439575 9.05736328 -8.51121338 8.08347656 -8.50793457 7.08007812 C-7.60624909 2.49992327 -4.66382617 -0.07287228 0 0 Z " fill="#000000" transform="translate(328,431.5)"/>
<path d="M0 0 C0.66 -0.0103125 1.32 -0.020625 2 -0.03125 C5.05368756 0.77988576 6.09111769 1.96980288 8 4.5 C8.60114553 7.49736221 8.56057764 10.45109277 8.53125 13.5 C8.5350769 14.37269531 8.53890381 15.24539063 8.54284668 16.14453125 C8.5455649 17.98699092 8.53820994 19.82948924 8.52148438 21.671875 C8.50007248 24.49045934 8.52128801 27.30649485 8.546875 30.125 C8.54423171 31.91667229 8.53910669 33.70834299 8.53125 35.5 C8.53934692 36.34175781 8.54744385 37.18351562 8.55578613 38.05078125 C8.46235399 43.88715618 8.46235399 43.88715618 6.09179688 47.02929688 C3.8272647 48.62144695 2.7390083 49.042797 0 49 C-0.99 49.01546875 -0.99 49.01546875 -2 49.03125 C-5.05368756 48.22011424 -6.09111769 47.03019712 -8 44.5 C-8.60114553 41.50263779 -8.56057764 38.54890723 -8.53125 35.5 C-8.5350769 34.62730469 -8.53890381 33.75460937 -8.54284668 32.85546875 C-8.5455649 31.01300908 -8.53820994 29.17051076 -8.52148438 27.328125 C-8.50007248 24.50954066 -8.52128801 21.69350515 -8.546875 18.875 C-8.54423171 17.08332771 -8.53910669 15.29165701 -8.53125 13.5 C-8.53934692 12.65824219 -8.54744385 11.81648438 -8.55578613 10.94921875 C-8.46235399 5.11284382 -8.46235399 5.11284382 -6.09179688 1.97070312 C-3.8272647 0.37855305 -2.7390083 -0.042797 0 0 Z " fill="#000000" transform="translate(232,447.5)"/>
<path d="M0 0 C0.66 -0.0103125 1.32 -0.020625 2 -0.03125 C4.91796104 0.7438334 6.0931088 2.19104167 8 4.5 C8.51757812 7.09375 8.51757812 7.09375 8.53125 10 C8.53640625 11.051875 8.5415625 12.10375 8.546875 13.1875 C8.53140625 14.280625 8.5159375 15.37375 8.5 16.5 C8.51546875 17.593125 8.5309375 18.68625 8.546875 19.8125 C8.54171875 20.864375 8.5365625 21.91625 8.53125 23 C8.52673828 23.9590625 8.52222656 24.918125 8.51757812 25.90625 C7.857725 29.21298564 6.58886445 30.40908706 4 32.5 C2 33.03125 2 33.03125 0 33 C-0.99 33.01546875 -0.99 33.01546875 -2 33.03125 C-4.91796104 32.2561666 -6.0931088 30.80895833 -8 28.5 C-8.51757812 25.90625 -8.51757812 25.90625 -8.53125 23 C-8.53640625 21.948125 -8.5415625 20.89625 -8.546875 19.8125 C-8.53140625 18.719375 -8.5159375 17.62625 -8.5 16.5 C-8.51546875 15.406875 -8.5309375 14.31375 -8.546875 13.1875 C-8.53914063 11.6096875 -8.53914063 11.6096875 -8.53125 10 C-8.52673828 9.0409375 -8.52222656 8.081875 -8.51757812 7.09375 C-7.60329874 2.51200272 -4.67433964 -0.07303656 0 0 Z " fill="#000000" transform="translate(280,463.5)"/>
<path d="M0 0 C2.5 1.5 2.5 1.5 4 4 C4.791013 8.02098277 4.62153384 10.96411027 2.5 14.5 C-1.03588973 16.62153384 -3.97901723 16.791013 -8 16 C-10.5 14.5 -10.5 14.5 -12 12 C-12.791013 7.97901723 -12.62153384 5.03588973 -10.5 1.5 C-6.96411027 -0.62153384 -4.02098277 -0.791013 0 0 Z " fill="#000000" transform="translate(188,480)"/>
</svg>
