<?xml version="1.0" encoding="UTF-8"?>
<svg version="1.1" xmlns="http://www.w3.org/2000/svg" width="512" height="512">
<path d="M0 0 C0.67282013 0.00304138 1.34564026 0.00608276 2.03884888 0.00921631 C13.02734333 0.08236565 23.22297938 1.0178581 33.6875 4.4375 C34.3676416 4.65180664 35.0477832 4.86611328 35.74853516 5.08691406 C49.97116107 9.66668627 62.38682523 16.61489362 73.6875 26.4375 C74.50734375 27.12457031 75.3271875 27.81164062 76.171875 28.51953125 C96.46870398 46.01136368 111.63703485 72.37033228 113.6875 99.4375 C114.40575705 114.18702935 114.91867751 129.16157589 110.6875 143.4375 C110.37039063 144.61054688 110.05328125 145.78359375 109.7265625 146.9921875 C105.1394607 162.38012475 97.50581667 176.57598851 86.6875 188.4375 C86.0275 189.24960938 85.3675 190.06171875 84.6875 190.8984375 C67.7938341 211.18363481 40.66794004 224.3747652 14.6875 227.4375 C9.69045366 227.82957594 4.69139996 228.14763007 -0.3125 228.4375 C-0.10777573 228.9522438 0.09694855 229.46698761 0.30787659 229.99732971 C9.98175652 254.32627029 19.6142374 278.66806785 28.96508789 303.12329102 C29.25618439 303.88425583 29.54728088 304.64522064 29.84719849 305.429245 C30.37652987 306.81393318 30.90509085 308.19891633 31.43258667 309.58430481 C31.67195953 310.21116684 31.9113324 310.83802887 32.15795898 311.48388672 C32.39630463 312.11875504 32.63465027 312.75362335 32.88021851 313.4077301 C33.45799698 314.8604543 34.08571545 316.29370401 34.74502563 317.71128845 C37.80157505 324.51061651 38.27363637 330.42964161 38.21875 337.83203125 C38.2225769 338.98241379 38.22640381 340.13279633 38.23034668 341.31803894 C38.23305282 343.73246138 38.22578333 346.14691379 38.20898438 348.5612793 C38.18745918 352.25700768 38.20888255 355.95081379 38.234375 359.64648438 C38.23173342 362.00000428 38.22661196 364.35352299 38.21875 366.70703125 C38.22684692 367.80916458 38.23494385 368.91129791 38.24328613 370.04682922 C38.18873791 374.49614772 38.14534763 377.57930532 36.02929688 381.5456543 C31.41198351 385.27580038 26.59922969 385.68697555 20.81582642 385.67800903 C19.81583337 385.68057231 19.81583337 385.68057231 18.79563844 385.68318737 C16.57539878 385.68646561 14.35546545 385.6755064 12.13525391 385.66455078 C10.53833015 385.66398631 8.94140588 385.66430394 7.34448242 385.66543579 C3.01848373 385.66600889 -1.30740372 385.65426153 -5.6333766 385.64028788 C-10.15772911 385.62777336 -14.68208426 385.62660945 -19.20645142 385.62423706 C-27.76985705 385.61802442 -36.33321152 385.6016165 -44.89659464 385.58153808 C-54.64744797 385.55917239 -64.39830376 385.54818396 -74.14917636 385.53814721 C-94.20365245 385.51725009 -114.25805844 385.48057652 -134.3125 385.4375 C-134.3125 406.8875 -134.3125 428.3375 -134.3125 450.4375 C-128.72570312 450.37949219 -123.13890625 450.32148438 -117.3828125 450.26171875 C-113.82809568 450.23614909 -110.27349341 450.21207809 -106.71875 450.19335938 C-101.08537026 450.16355354 -95.45239967 450.12842236 -89.81933594 450.06030273 C-85.27406223 450.00568607 -80.72922769 449.9760174 -76.18365097 449.96311378 C-74.45578988 449.9539268 -72.72795086 449.93598728 -71.00027847 449.90884972 C-52.80847755 449.63465321 -52.80847755 449.63465321 -45.3125 455.4375 C-39.07235719 461.99830979 -37.00466339 468.4311976 -36.9765625 477.46875 C-36.9699057 478.22289185 -36.9632489 478.97703369 -36.95639038 479.75402832 C-36.94631299 481.34071429 -36.94157183 482.92744222 -36.94189453 484.51416016 C-36.93751229 486.93072533 -36.90111952 489.34547491 -36.86328125 491.76171875 C-36.85741363 493.30988964 -36.85344387 494.85806913 -36.8515625 496.40625 C-36.83719147 497.12204224 -36.82282043 497.83783447 -36.80801392 498.57531738 C-36.8539881 503.66272571 -38.09884849 506.53256087 -41.3125 510.4375 C-44.49407162 512.55854775 -45.26993393 512.68891501 -48.91280842 512.69756222 C-49.86256497 512.70462781 -50.81232152 512.7116934 -51.79085857 512.7189731 C-52.83636526 512.71655802 -53.88187195 512.71414293 -54.95906067 512.71165466 C-56.06811679 512.71689134 -57.17717291 512.72212802 -58.3198368 512.72752339 C-62.05546425 512.74258754 -65.79095552 512.74322995 -69.52661133 512.74389648 C-72.1970935 512.75151367 -74.86756403 512.75989108 -77.53804016 512.76911926 C-84.80662799 512.79198392 -92.07518664 512.79989145 -99.34380555 512.80494571 C-103.88154362 512.80820106 -108.41927319 512.81472256 -112.95700645 512.8219471 C-125.51840473 512.84151501 -138.0797951 512.85791807 -150.6412096 512.86082363 C-151.44528513 512.8610112 -152.24936065 512.86119877 -153.0778021 512.86139202 C-154.70789285 512.86175828 -156.33798361 512.86212198 -157.96807436 512.86248314 C-158.77726461 512.86266595 -159.58645485 512.86284876 -160.42016602 512.86303711 C-161.23034287 512.86321766 -162.04051972 512.86339821 -162.87524738 512.86358423 C-176.00459211 512.86712627 -189.13377287 512.89414959 -202.26306073 512.931535 C-215.73972137 512.96960274 -229.21630062 512.988981 -242.69301623 512.98928314 C-250.26093426 512.98986807 -257.8286567 512.99838226 -265.39652443 513.02728081 C-271.84049879 513.05177431 -278.28420623 513.05909154 -284.72821454 513.04403328 C-288.01621132 513.03685571 -291.30357025 513.04046987 -294.59152985 513.06044388 C-298.15647999 513.08078297 -301.72005709 513.07042223 -305.2849884 513.05223083 C-306.32380293 513.0654308 -307.36261746 513.07863077 -308.43291122 513.09223074 C-312.97358089 513.03917624 -316.28738167 512.96770742 -319.93921947 510.08657932 C-323.72536568 505.86044527 -323.49711159 501.98956109 -323.55078125 496.5859375 C-323.558853 495.81246979 -323.56692474 495.03900208 -323.57524109 494.24209595 C-323.58906786 492.60298899 -323.59979631 490.96385341 -323.60766602 489.32470703 C-323.61914848 487.66055778 -323.63954086 485.99644427 -323.66918945 484.33251953 C-324.01111875 465.13481302 -324.01111875 465.13481302 -317.3828125 457.09765625 C-316.74085938 456.57042969 -316.09890625 456.04320312 -315.4375 455.5 C-314.48230469 454.68208984 -314.48230469 454.68208984 -313.5078125 453.84765625 C-308.40078875 450.56716591 -303.30687243 450.15101587 -297.37939453 450.21044922 C-296.6079863 450.21015717 -295.83657806 450.20986511 -295.04179382 450.20956421 C-292.5095162 450.21094989 -289.97753828 450.22647488 -287.4453125 450.2421875 C-285.68269003 450.24592034 -283.92006548 450.24876604 -282.15744019 450.25076294 C-277.53127251 450.25837802 -272.90523157 450.27800818 -268.27911377 450.3001709 C-262.72154356 450.3242839 -257.16393085 450.33342043 -251.60632324 450.34507751 C-243.17496084 450.36443387 -234.7438762 450.40277122 -226.3125 450.4375 C-226.3125 428.9875 -226.3125 407.5375 -226.3125 385.4375 C-231.18330322 385.45321045 -236.05410645 385.4689209 -241.07250977 385.48510742 C-257.15376869 385.53478513 -273.2350306 385.56809454 -289.31634617 385.59293652 C-299.06778946 385.60840088 -308.81916003 385.62948221 -318.57055664 385.66381836 C-327.07055219 385.69373385 -335.57049507 385.71307813 -344.0705418 385.71976548 C-348.57064424 385.72367409 -353.07059599 385.73285095 -357.5706501 385.75469017 C-361.80839353 385.77508928 -366.04592452 385.78132688 -370.28371239 385.77682304 C-371.83690165 385.77764671 -373.3900982 385.78359201 -374.94324493 385.79511642 C-377.06927893 385.81011466 -379.19451825 385.80642763 -381.3205719 385.79826355 C-382.50876306 385.80102893 -383.69695421 385.80379431 -384.92115116 385.80664349 C-389.66686373 385.29007944 -393.74191878 383.98709924 -397.21879578 380.55667114 C-398.5082971 378.05812178 -398.73456051 376.3372476 -398.81176758 373.53076172 C-398.843405 372.55308334 -398.87504242 371.57540497 -398.90763855 370.56809998 C-398.92393814 369.51179886 -398.94023773 368.45549774 -398.95703125 367.3671875 C-398.98021927 366.26532608 -399.00340729 365.16346466 -399.02729797 364.0282135 C-399.0860922 360.45604457 -399.11096504 356.88511357 -399.125 353.3125 C-399.13295593 352.10820343 -399.14091187 350.90390686 -399.14910889 349.66311646 C-399.19324149 330.96951639 -397.74233654 315.90653861 -388.3125 299.4375 C-387.96815918 298.71763916 -387.62381836 297.99777832 -387.26904297 297.25610352 C-386.3125 295.4375 -386.3125 295.4375 -384.625 294.125 C-381.24088082 293.11891051 -378.71583226 293.63307601 -375.3125 294.4375 C-373.375 295.5 -373.375 295.5 -372.3125 297.4375 C-372.3125 305.4375 -372.3125 305.4375 -378.3125 320.4375 C-342.6725 320.7675 -307.0325 321.0975 -270.3125 321.4375 C-268.6625 312.1975 -267.0125 302.9575 -265.3125 293.4375 C-264.24467467 287.72510695 -263.17003646 282.0169082 -262.0625 276.3125 C-261.80459508 274.96355933 -261.54678311 273.61460089 -261.2890625 272.265625 C-261.04414063 270.99976563 -260.79921875 269.73390625 -260.546875 268.4296875 C-260.33256836 267.31964355 -260.11826172 266.20959961 -259.89746094 265.06591797 C-259.3125 262.4375 -259.3125 262.4375 -258.3125 260.4375 C-306.3275 260.9325 -306.3275 260.9325 -355.3125 261.4375 C-356.9625 265.3975 -358.6125 269.3575 -360.3125 273.4375 C-363.3125 276.4375 -363.3125 276.4375 -367.25 276.9375 C-370.47616385 276.79464404 -371.20760615 276.51936837 -373.875 274.4375 C-376.0415036 269.91610118 -375.04863254 265.82549572 -373.61727905 261.18222046 C-372.71325014 258.67718119 -371.74957238 256.20365182 -370.76171875 253.73046875 C-370.39609329 252.79362747 -370.03046783 251.85678619 -369.65376282 250.89155579 C-368.44448022 247.79923863 -367.22225685 244.7122094 -366 241.625 C-365.14042971 239.43392558 -364.28172156 237.24251277 -363.42382812 235.05078125 C-361.17605357 229.31411911 -358.91775513 223.58165872 -356.65716553 217.85003662 C-354.52143992 212.42992157 -352.39529345 207.00606008 -350.26953125 201.58203125 C-347.78890651 195.25313439 -345.30786183 188.92441085 -342.82177734 182.59765625 C-338.57100621 171.77653866 -334.33957364 160.9483253 -330.14453125 150.10546875 C-329.72090302 149.01078278 -329.29727478 147.9160968 -328.86080933 146.78823853 C-326.85113306 141.59317971 -324.84433354 136.39703368 -322.84179688 131.19921875 C-319.12771014 121.57285382 -315.36599766 111.96570225 -311.51171875 102.39453125 C-311.14996048 101.48289719 -310.78820221 100.57126312 -310.41548157 99.63200378 C-307.25153398 91.84191084 -303.99827086 85.28698206 -296.1288805 81.34315681 C-292.61237786 80.21236338 -289.33989793 80.1668244 -285.68791199 80.19699097 C-284.54831802 80.19442769 -284.54831802 80.19442769 -283.38570195 80.19181263 C-280.84452187 80.18852305 -278.30360686 80.19951261 -275.76245117 80.21044922 C-273.9390768 80.21101345 -272.11570198 80.21069654 -270.29232788 80.20956421 C-265.34439486 80.20899015 -260.39655871 80.22075309 -255.44864821 80.23471212 C-250.27699381 80.24721061 -245.10533722 80.24838929 -239.93367004 80.25076294 C-230.14130017 80.25698029 -220.34897493 80.27339459 -210.55662471 80.29346192 C-199.40799677 80.31581295 -188.25936671 80.32681235 -177.11072195 80.33685279 C-154.17795655 80.35776058 -131.24523077 80.39294155 -108.3125 80.4375 C-108.18702286 79.83331238 -108.06154572 79.22912476 -107.93226624 78.60662842 C-107.76133957 77.80670471 -107.5904129 77.00678101 -107.41430664 76.18261719 C-107.2475795 75.39280457 -107.08085236 74.60299194 -106.90907288 73.78924561 C-105.99189467 70.17364407 -104.46009112 66.9874708 -102.75 63.6875 C-102.39993896 63.00284668 -102.04987793 62.31819336 -101.68920898 61.61279297 C-87.76480506 35.04580677 -87.76480506 35.04580677 -76.5625 31.125 C-72.96859787 31.47056751 -71.12731412 32.20220643 -68.3125 34.4375 C-66.88694881 37.28860237 -67.00626305 39.27434367 -67.3125 42.4375 C-68.96484375 44.9375 -68.96484375 44.9375 -71.25 47.4375 C-91.33966761 70.74909544 -97.92770436 97.05541579 -96.3125 127.4375 C-93.82205642 150.77578058 -80.13210459 173.94420761 -62.30908203 188.85693359 C-39.88444542 206.74272847 -13.09631103 213.2510584 15.33203125 210.14892578 C39.87214735 206.45700605 62.81584203 192.55197443 77.86181641 172.90966797 C94.10568682 150.7371149 99.36359983 124.97067916 96.39892578 97.79199219 C92.80085699 74.73537417 79.12611846 51.58219361 60.6875 37.4375 C37.53846744 21.05079089 11.24844752 13.29611055 -17.00878906 17.98974609 C-25.63159909 19.66569285 -33.96489272 22.33715426 -42 25.875 C-45.23037276 27.23197631 -46.13791069 27.46289481 -49.75 26.9375 C-52.57591755 25.28330436 -53.94106634 24.42238502 -55.3125 21.4375 C-55.3125 17.9375 -55.3125 17.9375 -54.3125 14.4375 C-50.29032659 10.43880231 -45.66529717 8.75717617 -40.4375 6.875 C-39.67953125 6.58431641 -38.9215625 6.29363281 -38.140625 5.99414062 C-25.70338643 1.43721797 -13.18737864 -0.10441838 0 0 Z M-292.3125 98.4375 C-293.85851973 100.97173457 -293.85851973 100.97173457 -294.91796875 103.953125 C-295.34400391 105.03980469 -295.77003906 106.12648438 -296.20898438 107.24609375 C-296.63501953 108.38175781 -297.06105469 109.51742187 -297.5 110.6875 C-297.93763672 111.80769531 -298.37527344 112.92789063 -298.82617188 114.08203125 C-300.92718624 119.51579969 -302.70661991 124.81691969 -304.3125 130.4375 C-280.8825 130.4375 -257.4525 130.4375 -233.3125 130.4375 C-228.30696045 108.70440498 -228.30696045 108.70440498 -227.3125 95.4375 C-235.04913688 95.36965003 -242.78566255 95.31464117 -250.52252483 95.28206348 C-254.11530829 95.26642561 -257.70787715 95.24522221 -261.30053711 95.21118164 C-264.76944391 95.17852035 -268.23814464 95.16063286 -271.70719337 95.15286827 C-273.67088752 95.14464982 -275.63449908 95.12124108 -277.59806824 95.09761047 C-278.7989357 95.09738388 -279.99980316 95.09715729 -281.23706055 95.09692383 C-282.81924629 95.08693108 -282.81924629 95.08693108 -284.43339539 95.07673645 C-287.76807792 95.49458577 -289.62499301 96.44845551 -292.3125 98.4375 Z M-210.3125 95.4375 C-212.83992677 107.06366315 -215.35652816 118.70166898 -217.3125 130.4375 C-193.2225 130.4375 -169.1325 130.4375 -144.3125 130.4375 C-145.49031099 118.65939012 -147.99110195 107.04449023 -150.3125 95.4375 C-170.1125 95.4375 -189.9125 95.4375 -210.3125 95.4375 Z M-134.3125 95.4375 C-133.64050889 99.29760159 -132.96620242 103.15719248 -132.28613281 107.01586914 C-131.94338485 108.96650829 -131.6044712 110.91781992 -131.265625 112.86914062 C-131.04648437 114.10986328 -130.82734375 115.35058594 -130.6015625 116.62890625 C-130.40256348 117.76529541 -130.20356445 118.90168457 -129.99853516 120.07250977 C-129.28554908 123.56969379 -128.29301374 127.00570192 -127.3125 130.4375 C-122.3625 130.4375 -117.4125 130.4375 -112.3125 130.4375 C-112.3125 118.8875 -112.3125 107.3375 -112.3125 95.4375 C-119.5725 95.4375 -126.8325 95.4375 -134.3125 95.4375 Z M-311.3125 146.4375 C-313.6225 152.33625 -315.9325 158.235 -318.3125 164.3125 C-319.40884766 167.10436768 -319.40884766 167.10436768 -320.52734375 169.95263672 C-321.10183058 171.42404901 -321.67606666 172.89555923 -322.25 174.3671875 C-322.55228516 175.13426025 -322.85457031 175.90133301 -323.16601562 176.69165039 C-324.74650495 180.45221237 -324.74650495 180.45221237 -325.3125 184.4375 C-298.2525 184.4375 -271.1925 184.4375 -243.3125 184.4375 C-241.0025 171.8975 -238.6925 159.3575 -236.3125 146.4375 C-261.0625 146.4375 -285.8125 146.4375 -311.3125 146.4375 Z M-220.3125 146.4375 C-225.07546693 165.31244163 -225.07546693 165.31244163 -227.3125 184.4375 C-196.2925 184.4375 -165.2725 184.4375 -133.3125 184.4375 C-136.68160598 165.41272638 -136.68160598 165.41272638 -140.3125 146.4375 C-166.7125 146.4375 -193.1125 146.4375 -220.3125 146.4375 Z M-124.3125 146.4375 C-122.53279515 159.21901668 -119.88209235 171.7924008 -117.3125 184.4375 C-108.0725 184.4375 -98.8325 184.4375 -89.3125 184.4375 C-91.6225 180.8075 -93.9325 177.1775 -96.3125 173.4375 C-101.33970189 164.67903581 -105.6001918 155.83428012 -109.3125 146.4375 C-114.2625 146.4375 -119.2125 146.4375 -124.3125 146.4375 Z M-332.3125 200.4375 C-335.1175 207.511875 -337.9225 214.58625 -340.8125 221.875 C-341.70001953 224.11079834 -342.58753906 226.34659668 -343.50195312 228.65014648 C-344.19935419 230.41124195 -344.89662864 232.17238755 -345.59375 233.93359375 C-345.96081055 234.85692505 -346.32787109 235.78025635 -346.70605469 236.73156738 C-347.05120117 237.60446411 -347.39634766 238.47736084 -347.75195312 239.37670898 C-348.0539563 240.13837875 -348.35595947 240.90004852 -348.66711426 241.68479919 C-349.37009036 243.28260919 -349.37009036 243.28260919 -349.3125 244.4375 C-318.2925 244.4375 -287.2725 244.4375 -255.3125 244.4375 C-252.8375 232.5575 -252.8375 232.5575 -250.3125 220.4375 C-248.5 211.75 -248.5 211.75 -247.79296875 208.36328125 C-247.17745963 205.10934264 -247.17745963 205.10934264 -247.3125 200.4375 C-275.3625 200.4375 -303.4125 200.4375 -332.3125 200.4375 Z M-230.3125 200.4375 C-234.42516898 214.83184142 -236.52963833 229.72808832 -239.3125 244.4375 C-200.7025 244.4375 -162.0925 244.4375 -122.3125 244.4375 C-122.92205751 238.34192488 -123.52681323 232.72626565 -124.6875 226.78515625 C-124.81688965 226.11834335 -124.9462793 225.45153046 -125.07958984 224.76451111 C-125.34974316 223.3770119 -125.6220467 221.98992964 -125.89648438 220.60327148 C-126.31633203 218.48062621 -126.72899173 216.35667391 -127.140625 214.23242188 C-128.4307022 207.26057634 -128.4307022 207.26057634 -130.3125 200.4375 C-163.3125 200.4375 -196.3125 200.4375 -230.3125 200.4375 Z M-114.3125 200.4375 C-113.19528983 206.3830473 -112.07419756 212.32784418 -110.94946289 218.27197266 C-110.56720249 220.29520725 -110.18601346 222.31864457 -109.8059082 224.34228516 C-109.26012604 227.24695634 -108.71052528 230.15088241 -108.16015625 233.0546875 C-107.9903273 233.96306366 -107.82049835 234.87143982 -107.64552307 235.80734253 C-107.48543259 236.64806305 -107.3253421 237.48878357 -107.16040039 238.35498047 C-107.02050186 239.09666473 -106.88060333 239.838349 -106.73646545 240.60250854 C-106.36898007 242.51986162 -106.36898007 242.51986162 -105.3125 244.4375 C-74.6225 244.4375 -43.9325 244.4375 -12.3125 244.4375 C-13.3025 241.1375 -14.2925 237.8375 -15.3125 234.4375 C-15.6734375 232.97183594 -16.034375 231.50617188 -16.40625 229.99609375 C-17.35683166 227.55532834 -17.89342385 226.66676311 -20.2109375 225.39892578 C-22.72801783 224.5975069 -25.22466577 224.02953451 -27.8125 223.5 C-44.0014175 219.51735593 -61.27147112 212.47852888 -73.3125 200.4375 C-76.34227804 200.34878727 -79.34917022 200.3223065 -82.37890625 200.33984375 C-83.28752914 200.3412587 -84.19615204 200.34267365 -85.13230896 200.34413147 C-88.04657221 200.34974807 -90.96075981 200.36230335 -93.875 200.375 C-95.84570202 200.38001286 -97.81640524 200.38457614 -99.78710938 200.38867188 C-104.62893559 200.39972289 -109.47070495 200.41699862 -114.3125 200.4375 Z M-242.3125 260.4375 C-249.80368328 290.74378823 -249.80368328 290.74378823 -253.3125 321.4375 C-205.1325 321.4375 -156.9525 321.4375 -107.3125 321.4375 C-109.59415774 300.90258031 -114.41066931 280.72701961 -118.3125 260.4375 C-159.2325 260.4375 -200.1525 260.4375 -242.3125 260.4375 Z M-102.3125 260.4375 C-101.04900986 268.65018594 -99.74472001 276.80010528 -98.18359375 284.953125 C-97.98903091 285.97557312 -97.79446808 286.99802124 -97.5940094 288.05145264 C-97.18765379 290.18248045 -96.78008921 292.31327807 -96.37133789 294.44384766 C-95.74361702 297.72082191 -95.12264241 300.99903125 -94.50195312 304.27734375 C-94.10457244 306.35684841 -93.70680066 308.43627839 -93.30859375 310.515625 C-93.12316513 311.49774963 -92.93773651 312.47987427 -92.74668884 313.49176025 C-92.57303299 314.39070007 -92.39937714 315.28963989 -92.22045898 316.21582031 C-92.06882797 317.00933899 -91.91719696 317.80285767 -91.76097107 318.62042236 C-91.47659185 320.44576505 -91.47659185 320.44576505 -90.3125 321.4375 C-88.90838683 321.5329693 -87.49950191 321.55938529 -86.09214783 321.55775452 C-85.18204453 321.55912918 -84.27194122 321.56050385 -83.33425903 321.56192017 C-82.32797455 321.55832489 -81.32169006 321.55472961 -80.28491211 321.55102539 C-79.23138046 321.55117142 -78.17784882 321.55131744 -77.09239197 321.5514679 C-73.591522 321.55076826 -70.09070448 321.54297348 -66.58984375 321.53515625 C-64.16988657 321.53329225 -61.74992901 321.53186826 -59.32997131 321.53086853 C-52.94634976 321.52704192 -46.56275079 321.51721041 -40.17913818 321.50616455 C-33.67086086 321.49595351 -27.1625799 321.49137157 -20.65429688 321.48632812 C-7.87368825 321.47558827 4.90690467 321.45870112 17.6875 321.4375 C17.07003903 317.94163931 16.16424262 314.7890642 14.87744141 311.48291016 C14.50680573 310.52486481 14.13617004 309.56681946 13.75430298 308.57974243 C13.35327362 307.55569305 12.95224426 306.53164368 12.5390625 305.4765625 C12.12586761 304.41263275 11.71267273 303.348703 11.28695679 302.25253296 C10.41293468 300.00420291 9.53696172 297.75663041 8.65917969 295.50976562 C7.3207505 292.08361984 5.98796104 288.65532443 4.65625 285.2265625 C3.8050171 283.03893422 2.95346504 280.8514301 2.1015625 278.6640625 C1.7045816 277.64406158 1.30760071 276.62406067 0.89859009 275.57315063 C0.52165009 274.60880096 0.14471008 273.64445129 -0.24365234 272.65087891 C-0.73543472 271.39109726 -0.73543472 271.39109726 -1.2371521 270.10586548 C-2.54443231 266.86198376 -3.93480983 263.65211039 -5.3125 260.4375 C-37.3225 260.4375 -69.3325 260.4375 -102.3125 260.4375 Z M-382.3125 337.4375 C-382.3125 347.9975 -382.3125 358.5575 -382.3125 369.4375 C-248.9925 369.4375 -115.6725 369.4375 21.6875 369.4375 C21.6875 358.8775 21.6875 348.3175 21.6875 337.4375 C-111.6325 337.4375 -244.9525 337.4375 -382.3125 337.4375 Z M-210.3125 385.4375 C-210.3125 406.8875 -210.3125 428.3375 -210.3125 450.4375 C-190.5125 450.4375 -170.7125 450.4375 -150.3125 450.4375 C-150.3125 428.9875 -150.3125 407.5375 -150.3125 385.4375 C-170.1125 385.4375 -189.9125 385.4375 -210.3125 385.4375 Z M-307.3125 471.4375 C-307.3125 480.0175 -307.3125 488.5975 -307.3125 497.4375 C-223.4925 497.4375 -139.6725 497.4375 -53.3125 497.4375 C-51.16876769 475.03856187 -51.16876769 475.03856187 -56.3125 467.4375 C-58.58571011 466.30089494 -59.83076512 466.30846089 -62.35526752 466.30048561 C-63.63153821 466.2928738 -63.63153821 466.2928738 -64.93359214 466.28510821 C-66.34382479 466.28436157 -66.34382479 466.28436157 -67.782547 466.28359985 C-68.77711479 466.2792176 -69.77168259 466.27483535 -70.7963888 466.2703203 C-74.15047525 466.25689704 -77.5045354 466.25074556 -80.85864258 466.24462891 C-83.25473653 466.23673081 -85.65082929 466.22846204 -88.04692078 466.21984863 C-95.25269164 466.19586424 -102.45846431 466.18069688 -109.66426113 466.16778857 C-111.69888171 466.16407736 -113.73350159 466.16010408 -115.76812148 466.1560359 C-128.39829088 466.13080144 -141.02846135 466.10874469 -153.6586504 466.09630775 C-156.5846895 466.09337798 -159.51072856 466.09041633 -162.43676758 466.08740234 C-163.16403503 466.08665629 -163.89130248 466.08591024 -164.64060833 466.08514158 C-176.42565483 466.0724841 -188.21055059 466.03925618 -199.99552659 465.99760051 C-212.0901378 465.95520018 -224.18467179 465.93161498 -236.27935714 465.92638719 C-243.07206601 465.92297102 -249.86453927 465.91119188 -256.65717506 465.87828445 C-263.04539265 465.84738725 -269.4333117 465.84185642 -275.82159615 465.85366821 C-278.1690092 465.85388978 -280.51644079 465.84551673 -282.8637886 465.82801437 C-286.06352726 465.80545098 -289.2617576 465.81355896 -292.46150208 465.82949829 C-293.39496501 465.8156162 -294.32842795 465.80173412 -295.29017764 465.78743136 C-296.14884801 465.7980033 -297.00751837 465.80857524 -297.89220905 465.81946754 C-298.99955606 465.81743275 -298.99955606 465.81743275 -300.12927371 465.81535685 C-303.17835223 466.49293811 -303.17835223 466.49293811 -307.3125 471.4375 Z " fill="#000000" transform="translate(398.3125,-0.4375)"/>
<path d="M0 0 C3.3125 1.4375 3.3125 1.4375 6 4 C7.72746775 8.96949956 7.2225068 13.24085444 5.1484375 17.99609375 C4.24612173 19.82102278 3.32023436 21.63442714 2.375 23.4375 C1.88733154 24.41017822 1.39966309 25.38285645 0.8972168 26.38500977 C-0.15553371 28.48006123 -1.21782095 30.57034211 -2.28857422 32.65625 C-4.09485801 36.1853317 -5.86654143 39.73011491 -7.62890625 43.28125 C-10.73320512 49.53063852 -13.85982556 55.76856349 -17 62 C-16.29915283 61.98428955 -15.59830566 61.9685791 -14.8762207 61.95239258 C-11.68839649 61.88987588 -8.50070149 61.85095619 -5.3125 61.8125 C-4.20970703 61.78736328 -3.10691406 61.76222656 -1.97070312 61.73632812 C-0.90400391 61.72666016 0.16269531 61.71699219 1.26171875 61.70703125 C2.24100342 61.6913208 3.22028809 61.67561035 4.22924805 61.65942383 C7.50320435 62.06185303 9.34889846 63.06899378 12 65 C14.53491356 69.14804037 14.10600461 72.3686057 13 77 C11.22618054 79.10603983 9.70825968 80.65246539 7.625 82.375 C7.08407715 82.84558838 6.5431543 83.31617676 5.98583984 83.80102539 C4.34052258 85.22189392 2.67538454 86.61477995 1 88 C-0.36125 89.13115234 -0.36125 89.13115234 -1.75 90.28515625 C-3.52225417 91.73829918 -5.30109197 93.1834444 -7.0859375 94.62109375 C-10.43982202 97.35905042 -13.7219289 100.17216465 -17 103 C-21.98916345 107.30000409 -27.04222113 111.50486186 -32.15625 115.65625 C-35.47686486 118.39302049 -38.74046782 121.1910295 -42 124 C-46.97972032 128.29137885 -52.01983646 132.49154661 -57.12890625 136.62890625 C-59.32884325 138.44572497 -61.49733407 140.28340225 -63.65234375 142.15234375 C-64.28011719 142.69632813 -64.90789062 143.2403125 -65.5546875 143.80078125 C-66.78317302 144.86869709 -68.00858872 145.94015761 -69.23046875 147.015625 C-75.978615 152.88155947 -75.978615 152.88155947 -80 153.1171875 C-83.37684737 152.70827239 -85.56695912 152.28869392 -88.4375 150.375 C-90.63944749 147.02803982 -91.06610572 145.03244888 -91 141 C-88.12924444 134.46248207 -83.79838045 128.49441472 -79.82421875 122.58984375 C-79.25419632 121.73693253 -78.68417389 120.8840213 -78.09687805 120.00526428 C-76.29702568 117.31380114 -74.49235627 114.62560947 -72.6875 111.9375 C-71.45736075 110.09982457 -70.22754001 108.2619359 -68.99804688 106.42382812 C-66.00237307 101.94674855 -63.00275047 97.47233595 -60 93 C-60.57443848 92.99589111 -61.14887695 92.99178223 -61.74072266 92.98754883 C-64.36982647 92.95444003 -66.99666529 92.88378307 -69.625 92.8125 C-70.98044922 92.80379883 -70.98044922 92.80379883 -72.36328125 92.79492188 C-76.78975623 92.64952671 -80.0438357 92.46002584 -83.5859375 89.63671875 C-86.37794228 86.58719896 -87 85.10691765 -87 81 C-85.63930718 75.82847429 -82.22655321 72.824778 -78.5234375 69.1953125 C-77.5573204 68.23200516 -77.5573204 68.23200516 -76.57168579 67.24923706 C-75.20835181 65.89261465 -73.84143007 64.53958949 -72.47119141 63.18994141 C-70.3962706 61.14595349 -68.33199753 59.09170299 -66.26953125 57.03515625 C-64.93811559 55.71292152 -63.6061027 54.39128783 -62.2734375 53.0703125 C-61.66478851 52.46591339 -61.05613953 51.86151428 -60.42904663 51.23880005 C-57.37574909 48.23492388 -54.27122829 45.33708071 -51.02783203 42.53881836 C-46.91657418 38.97869953 -43.09190915 35.18573626 -39.28125 31.30859375 C-37.83997962 29.85468301 -36.39856914 28.40091114 -34.95703125 26.94726562 C-32.72376639 24.68919763 -30.49215758 22.42954031 -28.26318359 20.16723633 C-26.08620326 17.95985392 -23.90287782 15.7589011 -21.71875 13.55859375 C-21.063302 12.88968613 -20.407854 12.2207785 -19.73254395 11.53160095 C-6.79310955 -1.47676295 -6.79310955 -1.47676295 0 0 Z M-28 43 C-28.47308594 43.47832275 -28.94617188 43.95664551 -29.43359375 44.44946289 C-31.61964406 46.6565534 -33.80979129 48.85953633 -36 51.0625 C-37.11568359 52.19075195 -37.11568359 52.19075195 -38.25390625 53.34179688 C-42.4537913 57.5599423 -46.73817183 61.59686019 -51.25 65.47924805 C-53.41826984 67.36347696 -55.47310602 69.34006279 -57.5 71.375 C-58.1703125 72.04273437 -58.840625 72.71046875 -59.53125 73.3984375 C-61.1126479 74.76065598 -61.1126479 74.76065598 -61 76 C-59.12054688 76.03867188 -59.12054688 76.03867188 -57.203125 76.078125 C-55.55204877 76.13441169 -53.90100845 76.1917589 -52.25 76.25 C-51.0125 76.27126953 -51.0125 76.27126953 -49.75 76.29296875 C-43.62542644 76.53992736 -43.62542644 76.53992736 -40.48828125 78.84765625 C-38.26587101 82.0616931 -37.93569164 84.07719027 -38 88 C-39.29517051 91.24980858 -41.08376777 94.08210092 -43 97 C-43.55171875 97.84949219 -44.1034375 98.69898438 -44.671875 99.57421875 C-46.09401267 101.73112755 -47.53574298 103.87154391 -49 106 C-44.51731097 106 -42.29855357 103.05141907 -39.125 100.1875 C-37.77803367 98.99401257 -36.43036397 97.80131854 -35.08203125 96.609375 C-34.06230225 95.70348633 -34.06230225 95.70348633 -33.02197266 94.77929688 C-29.47346102 91.65667519 -25.84368956 88.63098491 -22.21337891 85.60424805 C-19.33673943 83.18964256 -16.61190159 80.69917276 -14 78 C-15.75376953 77.96132812 -15.75376953 77.96132812 -17.54296875 77.921875 C-19.09118226 77.86557633 -20.6393579 77.80822938 -22.1875 77.75 C-22.95642578 77.73582031 -23.72535156 77.72164062 -24.51757812 77.70703125 C-29.54764817 77.49114842 -32.37482462 76.80783926 -36 73 C-37.63089416 68.97073207 -36.92846484 66.28408428 -35.4375 62.375 C-33.23792694 57.27880608 -30.68106744 52.36684826 -28.07421875 47.46875 C-27.54248047 46.24671875 -27.54248047 46.24671875 -27 45 C-27.495 44.01 -27.495 44.01 -28 43 Z " fill="#000000" transform="translate(437,37)"/>
</svg>
